<svg width="27" height="24" viewBox="0 0 27 24" fill="none" xmlns="http://www.w3.org/2000/svg">
<path d="M2.25963 23.7499C1.62821 23.7499 1.09375 23.5312 0.65625 23.0937C0.21875 22.6562 0 22.1217 0 21.4903V7.25963C0 6.62821 0.21875 6.09375 0.65625 5.65625C1.09375 5.21875 1.62821 5 2.25963 5H6.07691L7.71153 3.22838C7.91828 3.00427 8.16733 2.82685 8.45869 2.69613C8.75002 2.56538 9.05545 2.5 9.37497 2.5H14.4471C14.7127 2.5 14.9354 2.58989 15.115 2.76966C15.2947 2.94943 15.3846 3.17218 15.3846 3.43791C15.3846 3.70366 15.2947 3.92627 15.115 4.10575C14.9354 4.28523 14.7127 4.37497 14.4471 4.37497H9.20669L6.91344 6.87497H2.25963C2.14744 6.87497 2.05528 6.91103 1.98316 6.98316C1.91103 7.05528 1.87497 7.14744 1.87497 7.25963V21.4903C1.87497 21.6025 1.91103 21.6947 1.98316 21.7668C2.05528 21.8389 2.14744 21.875 2.25963 21.875H21.4903C21.6025 21.875 21.6947 21.8389 21.7668 21.7668C21.8389 21.6947 21.875 21.6025 21.875 21.4903V11.8028C21.875 11.5372 21.9649 11.3146 22.1446 11.1349C22.3244 10.9552 22.5471 10.8654 22.8129 10.8654C23.0786 10.8654 23.3012 10.9552 23.4807 11.1349C23.6602 11.3146 23.7499 11.5372 23.7499 11.8028V21.4903C23.7499 22.1217 23.5312 22.6562 23.0937 23.0937C22.6562 23.5312 22.1217 23.7499 21.4903 23.7499H2.25963ZM21.875 4.37497H20.3124C20.0468 4.37497 19.8242 4.28508 19.6445 4.10531C19.4648 3.92556 19.375 3.70281 19.375 3.43706C19.375 3.17133 19.4648 2.94873 19.6445 2.76925C19.8242 2.58975 20.0468 2.5 20.3124 2.5H21.875V0.9375C21.875 0.671875 21.9649 0.449219 22.1446 0.269531C22.3244 0.0898438 22.5471 0 22.8129 0C23.0786 0 23.3012 0.0898438 23.4807 0.269531C23.6602 0.449219 23.7499 0.671875 23.7499 0.9375V2.5H25.3124C25.5781 2.5 25.8007 2.58989 25.9804 2.76966C26.1601 2.94943 26.2499 3.17218 26.2499 3.43791C26.2499 3.70366 26.1601 3.92627 25.9804 4.10575C25.8007 4.28523 25.5781 4.37497 25.3124 4.37497H23.7499V5.9375C23.7499 6.2031 23.6601 6.42575 23.4803 6.60544C23.3005 6.78513 23.0778 6.87497 22.812 6.87497C22.5463 6.87497 22.3237 6.78513 22.1442 6.60544C21.9647 6.42575 21.875 6.2031 21.875 5.9375V4.37497ZM11.875 19.5192C13.3093 19.5192 14.5252 19.0204 15.5228 18.0228C16.5204 17.0252 17.0192 15.8093 17.0192 14.375C17.0192 12.9407 16.5204 11.7247 15.5228 10.7272C14.5252 9.72958 13.3093 9.23078 11.875 9.23078C10.4407 9.23078 9.22474 9.72958 8.22716 10.7272C7.22957 11.7247 6.73078 12.9407 6.73078 14.375C6.73078 15.8093 7.22957 17.0252 8.22716 18.0228C9.22474 19.0204 10.4407 19.5192 11.875 19.5192ZM11.875 17.6442C10.9519 17.6442 10.1762 17.3301 9.54803 16.7019C8.91982 16.0737 8.60572 15.2981 8.60572 14.375C8.60572 13.4519 8.91982 12.6762 9.54803 12.048C10.1762 11.4198 10.9519 11.1057 11.875 11.1057C12.7981 11.1057 13.5737 11.4198 14.2019 12.048C14.8301 12.6762 15.1442 13.4519 15.1442 14.375C15.1442 15.2981 14.8301 16.0737 14.2019 16.7019C13.5737 17.3301 12.7981 17.6442 11.875 17.6442Z" fill="#B7BECF"/>
</svg>
