<svg width="38" height="38" viewBox="0 0 38 38" fill="none" xmlns="http://www.w3.org/2000/svg">
<g id="add_circle">
<mask id="mask0_2435_5043" style="mask-type:alpha" maskUnits="userSpaceOnUse" x="0" y="0" width="38" height="38">
<rect id="Bounding box" width="38" height="38" fill="#D9D9D9"/>
</mask>
<g mask="url(#mask0_2435_5043)">
<path id="add_circle_2" d="M17.8132 20.1875V25.3333C17.8132 25.6698 17.927 25.9518 18.1547 26.1794C18.3824 26.407 18.6645 26.5208 19.0011 26.5208C19.3377 26.5208 19.6197 26.407 19.8471 26.1794C20.0744 25.9518 20.1881 25.6698 20.1881 25.3333V20.1875H25.3339C25.6704 20.1875 25.9524 20.0736 26.18 19.8459C26.4076 19.6182 26.5214 19.3361 26.5214 18.9995C26.5214 18.6629 26.4076 18.3809 26.18 18.1536C25.9524 17.9262 25.6704 17.8125 25.3339 17.8125H20.1881V12.6667C20.1881 12.3302 20.0742 12.0482 19.8465 11.8206C19.6188 11.593 19.3367 11.4792 19.0001 11.4792C18.6635 11.4792 18.3815 11.593 18.1542 11.8206C17.9268 12.0482 17.8132 12.3302 17.8132 12.6667V17.8125H12.6673C12.3308 17.8125 12.0488 17.9264 11.8212 18.1541C11.5936 18.3818 11.4798 18.6639 11.4798 19.0005C11.4798 19.3371 11.5936 19.6191 11.8212 19.8465C12.0488 20.0738 12.3308 20.1875 12.6673 20.1875H17.8132ZM19.0033 34.0416C16.9229 34.0416 14.9674 33.6469 13.1369 32.8573C11.3063 32.0677 9.71395 30.9962 8.35986 29.6427C7.00574 28.2892 5.93373 26.6976 5.14383 24.8678C4.35393 23.0381 3.95898 21.083 3.95898 19.0027C3.95898 16.9223 4.35376 14.9668 5.14332 13.1362C5.93287 11.3057 7.00439 9.71334 8.35788 8.35925C9.71139 7.00513 11.303 5.93312 13.1328 5.14322C14.9625 4.35333 16.9176 3.95837 18.998 3.95837C21.0784 3.95837 23.0338 4.35315 24.8644 5.14271C26.6949 5.93226 28.2873 7.00378 29.6414 8.35727C30.9955 9.71078 32.0675 11.3024 32.8574 13.1322C33.6473 14.9619 34.0422 16.917 34.0422 18.9974C34.0422 21.0777 33.6475 23.0332 32.8579 24.8638C32.0683 26.6943 30.9968 28.2867 29.6433 29.6408C28.2898 30.9949 26.6982 32.0669 24.8684 32.8568C23.0387 33.6467 21.0837 34.0416 19.0033 34.0416ZM19.0006 31.6667C22.5367 31.6667 25.5319 30.4396 27.986 27.9854C30.4402 25.5313 31.6673 22.5361 31.6673 19C31.6673 15.4639 30.4402 12.4688 27.986 10.0146C25.5319 7.56042 22.5367 6.33334 19.0006 6.33334C15.4645 6.33334 12.4694 7.56042 10.0152 10.0146C7.56103 12.4688 6.33395 15.4639 6.33395 19C6.33395 22.5361 7.56103 25.5313 10.0152 27.9854C12.4694 30.4396 15.4645 31.6667 19.0006 31.6667Z" fill="#CFD5E3"/>
</g>
</g>
</svg>
