<svg width="22" height="22" viewBox="0 0 22 22" fill="none" xmlns="http://www.w3.org/2000/svg">
<mask id="mask0_1198_5079" style="mask-type:alpha" maskUnits="userSpaceOnUse" x="0" y="0" width="22" height="22">
<rect x="22" width="22" height="22" transform="rotate(90 22 0)" fill="#D9D9D9"/>
</mask>
<g mask="url(#mask0_1198_5079)">
<path d="M11.0004 8.41927L4.09539 15.3242C3.91323 15.5064 3.69876 15.5951 3.45196 15.5904C3.20518 15.5857 2.99071 15.4923 2.80855 15.3101C2.62639 15.128 2.53531 14.9135 2.53531 14.6667C2.53531 14.4199 2.62639 14.2055 2.80855 14.0233L9.82635 6.99142C9.99205 6.8257 10.1777 6.70289 10.3834 6.62299C10.5891 6.54307 10.7947 6.50311 11.0004 6.50311C11.206 6.50311 11.4117 6.54307 11.6174 6.62299C11.823 6.70289 12.0087 6.8257 12.1744 6.99142L19.2063 14.0233C19.3884 14.2055 19.4772 14.4223 19.4725 14.6738C19.4678 14.9253 19.3743 15.1421 19.1922 15.3242C19.01 15.5064 18.7956 15.5975 18.5488 15.5975C18.302 15.5975 18.0875 15.5064 17.9053 15.3242L11.0004 8.41927Z" fill="#FF743D"/>
</g>
</svg>
