<svg width="28" height="28" viewBox="0 0 28 28" fill="none" xmlns="http://www.w3.org/2000/svg">
<g id="arrow_back_ios_new">
<mask id="mask0_2917_19359" style="mask-type:alpha" maskUnits="userSpaceOnUse" x="0" y="0" width="28" height="28">
<rect id="Bounding box" width="28" height="28" fill="#D9D9D9"/>
</mask>
<g mask="url(#mask0_2917_19359)">
<path id="arrow_back_ios_new_2" d="M10.4387 13.7828L19.2269 22.571C19.4587 22.8028 19.5717 23.0758 19.5657 23.3899C19.5597 23.704 19.4408 23.977 19.2089 24.2088C18.9771 24.4406 18.7041 24.5565 18.39 24.5565C18.0759 24.5565 17.803 24.4406 17.5712 24.2088L8.62148 15.2771C8.41057 15.0662 8.25427 14.8298 8.15257 14.5681C8.05086 14.3063 8 14.0446 8 13.7828C8 13.5211 8.05086 13.2594 8.15257 12.9976C8.25427 12.7359 8.41057 12.4995 8.62148 12.2886L17.5712 3.33896C17.803 3.10713 18.0789 2.99419 18.399 3.00016C18.7191 3.00615 18.9951 3.12507 19.2269 3.3569C19.4587 3.58874 19.5746 3.8617 19.5746 4.17578C19.5746 4.48989 19.4587 4.76286 19.2269 4.9947L10.4387 13.7828Z" fill="#50545E"/>
</g>
</g>
</svg>
