<svg width="22" height="22" viewBox="0 0 22 22" fill="none" xmlns="http://www.w3.org/2000/svg">
<mask id="mask0_211_3180" style="mask-type:alpha" maskUnits="userSpaceOnUse" x="0" y="0" width="22" height="22">
<rect y="22" width="22" height="22" transform="rotate(-90 0 22)" fill="#D9D9D9"/>
</mask>
<g mask="url(#mask0_211_3180)">
<path d="M10.9996 13.5809L17.9046 6.67594C18.0868 6.49378 18.3012 6.40506 18.548 6.40976C18.7948 6.41447 19.0093 6.5079 19.1914 6.69006C19.3736 6.8722 19.4647 7.08667 19.4647 7.33347C19.4647 7.58026 19.3736 7.79473 19.1914 7.97687L12.1737 15.0088C12.0079 15.1745 11.8223 15.2973 11.6166 15.3772C11.4109 15.4571 11.2053 15.4971 10.9996 15.4971C10.794 15.4971 10.5883 15.4571 10.3826 15.3772C10.177 15.2973 9.99131 15.1745 9.82561 15.0088L2.79372 7.97687C2.61156 7.79473 2.52283 7.57791 2.52752 7.32641C2.53223 7.07492 2.62566 6.8581 2.80781 6.67594C2.98997 6.49378 3.20444 6.40271 3.45122 6.40271C3.69802 6.40271 3.9125 6.49378 4.09465 6.67594L10.9996 13.5809Z" fill="#FF743D"/>
</g>
</svg>
