<svg width="20" height="20" viewBox="0 0 20 20" fill="none" xmlns="http://www.w3.org/2000/svg">
<g id="arrow_back_ios">
<mask id="mask0_1499_18900" style="mask-type:alpha" maskUnits="userSpaceOnUse" x="0" y="0" width="20" height="20">
<rect id="Bounding box" x="20" y="20" width="20" height="20" transform="rotate(180 20 20)" fill="#D9D9D9"/>
</mask>
<g mask="url(#mask0_1499_18900)">
<path id="arrow_back_ios_2" d="M17.0417 9.99991L10.9167 3.87491C10.7083 3.66658 10.6076 3.42352 10.6146 3.14574C10.6215 2.86796 10.7292 2.62491 10.9375 2.41658C11.1458 2.20824 11.3889 2.10408 11.6667 2.10408C11.9444 2.10408 12.1875 2.20824 12.3958 2.41658L18.8125 8.81241C18.9792 8.97907 19.1042 9.16657 19.1875 9.37491C19.2708 9.58324 19.3125 9.79157 19.3125 9.99991C19.3125 10.2082 19.2708 10.4166 19.1875 10.6249C19.1042 10.8332 18.9792 11.0207 18.8125 11.1874L12.3958 17.6041C12.1875 17.8124 11.941 17.9131 11.6563 17.9062C11.3715 17.8992 11.125 17.7916 10.9167 17.5832C10.7083 17.3749 10.6042 17.1319 10.6042 16.8541C10.6042 16.5763 10.7083 16.3332 10.9167 16.1249L17.0417 9.99991Z" fill="#808593"/>
</g>
</g>
</svg>
