<svg width="24" height="24" viewBox="0 0 24 24" fill="none" xmlns="http://www.w3.org/2000/svg">
<g id="arrow_back_ios">
<mask id="mask0_2485_4800" style="mask-type:alpha" maskUnits="userSpaceOnUse" x="0" y="0" width="24" height="24">
<rect id="Bounding box" width="24" height="24" fill="#D9D9D9"/>
</mask>
<g mask="url(#mask0_2485_4800)">
<path id="arrow_back_ios_2" d="M9.09035 12.2424L16.623 19.7751C16.8218 19.9739 16.9186 20.2078 16.9134 20.4771C16.9083 20.7463 16.8064 20.9802 16.6076 21.179C16.4089 21.3777 16.175 21.477 15.9058 21.477C15.6365 21.477 15.4026 21.3777 15.2039 21.179L7.5327 13.5232C7.3519 13.3424 7.21792 13.1399 7.13075 12.9155C7.04358 12.6911 7 12.4668 7 12.2424C7 12.0181 7.04358 11.7937 7.13075 11.5694C7.21793 11.345 7.35192 11.1425 7.5327 10.9617L15.2039 3.29053C15.4026 3.09182 15.6391 2.99501 15.9135 3.00013C16.1878 3.00526 16.4243 3.10719 16.623 3.30591C16.8218 3.50462 16.9211 3.73859 16.9211 4.00781C16.9211 4.27704 16.8218 4.51102 16.623 4.70973L9.09035 12.2424Z" fill="white"/>
</g>
</g>
</svg>
