<svg width="24" height="24" viewBox="0 0 24 24" fill="none" xmlns="http://www.w3.org/2000/svg">
<g id="arrow_back_ios">
<mask id="mask0_2973_9639" style="mask-type:alpha" maskUnits="userSpaceOnUse" x="0" y="0" width="24" height="24">
<rect id="Bounding box" y="24" width="24" height="24" transform="rotate(-90 0 24)" fill="#D9D9D9"/>
</mask>
<g mask="url(#mask0_2973_9639)">
<path id="arrow_back_ios_2" d="M12.2425 14.9506L19.7752 7.56564C19.9739 7.37082 20.2079 7.27592 20.4771 7.28096C20.7463 7.28599 20.9803 7.38591 21.179 7.58074C21.3777 7.77554 21.4771 8.00492 21.4771 8.26887C21.4771 8.53283 21.3777 8.7622 21.179 8.95701L13.5232 16.4777C13.3425 16.655 13.1399 16.7864 12.9156 16.8718C12.6912 16.9573 12.4668 17 12.2425 17C12.0181 17 11.7938 16.9573 11.5694 16.8718C11.3451 16.7863 11.1425 16.655 10.9617 16.4777L3.29059 8.95701C3.09188 8.7622 2.99508 8.53031 3.00019 8.26132C3.00533 7.99235 3.10725 7.76046 3.30597 7.56564C3.50468 7.37082 3.73865 7.27341 4.00787 7.27341C4.2771 7.27341 4.51108 7.37082 4.70979 7.56564L12.2425 14.9506Z" fill="#808593"/>
</g>
</g>
</svg>
