<svg width="17" height="18" viewBox="0 0 17 18" fill="none" xmlns="http://www.w3.org/2000/svg">
<mask id="mask0_2196_35907" style="mask-type:alpha" maskUnits="userSpaceOnUse" x="0" y="0" width="17" height="18">
<rect y="0.5" width="17" height="17" fill="#D9D9D9"/>
</mask>
<g mask="url(#mask0_2196_35907)">
<path d="M10.5063 8.99982L5.17068 3.66416C5.02992 3.5234 4.96136 3.35586 4.96498 3.16152C4.96862 2.96718 5.04081 2.79964 5.18157 2.65889C5.32233 2.51813 5.48987 2.44775 5.6842 2.44775C5.87854 2.44775 6.04608 2.51813 6.18684 2.65889L11.6097 8.09262C11.7377 8.22067 11.8326 8.36414 11.8944 8.52306C11.9561 8.68199 11.987 8.84091 11.987 8.99982C11.987 9.15874 11.9561 9.31766 11.8944 9.47658C11.8326 9.6355 11.7377 9.77898 11.6097 9.90702L6.17595 15.3407C6.03519 15.4815 5.86946 15.5501 5.67875 15.5465C5.48805 15.5428 5.32233 15.4706 5.18157 15.3299C5.04081 15.1891 4.97043 15.0216 4.97043 14.8272C4.97043 14.6329 5.04081 14.4654 5.18157 14.3246L10.5063 8.99982Z" fill="#808593"/>
</g>
</svg>
