<svg width="24" height="24" viewBox="0 0 24 24" fill="none" xmlns="http://www.w3.org/2000/svg">
<g id="arrow_back_ios">
<mask id="mask0_2973_19818" style="mask-type:alpha" maskUnits="userSpaceOnUse" x="0" y="0" width="24" height="24">
<rect id="Bounding box" x="24" width="24" height="24" transform="rotate(90 24 0)" fill="#D9D9D9"/>
</mask>
<g mask="url(#mask0_2973_19818)">
<path id="arrow_back_ios_2" d="M11.7575 9.04936L4.22481 16.4344C4.02609 16.6292 3.79212 16.7241 3.52288 16.719C3.25367 16.714 3.0197 16.6141 2.82098 16.4193C2.62227 16.2245 2.52291 15.9951 2.52291 15.7311C2.52291 15.4672 2.62227 15.2378 2.82098 15.043L10.4768 7.52225C10.6575 7.345 10.8601 7.21364 11.0844 7.12819C11.3088 7.04273 11.5332 7 11.7575 7C11.9819 7 12.2062 7.04273 12.4306 7.12819C12.6549 7.21366 12.8575 7.34502 13.0383 7.52225L20.7094 15.043C20.9081 15.2378 21.0049 15.4697 20.9998 15.7387C20.9947 16.0076 20.8927 16.2395 20.694 16.4344C20.4953 16.6292 20.2613 16.7266 19.9921 16.7266C19.7229 16.7266 19.4889 16.6292 19.2902 16.4344L11.7575 9.04936Z" fill="#FF743D"/>
</g>
</g>
</svg>
