<svg width="20" height="20" viewBox="0 0 20 20" fill="none" xmlns="http://www.w3.org/2000/svg">
<g id="article">
<mask id="mask0_1499_18865" style="mask-type:alpha" maskUnits="userSpaceOnUse" x="0" y="0" width="20" height="20">
<rect id="Bounding box" width="20" height="20" fill="#D9D9D9"/>
</mask>
<g mask="url(#mask0_1499_18865)">
<path id="article_2" d="M4.42243 17.0832C4.00149 17.0832 3.64518 16.9374 3.35352 16.6457C3.06185 16.354 2.91602 15.9977 2.91602 15.5768V4.42298C2.91602 4.00204 3.06185 3.64573 3.35352 3.35406C3.64518 3.0624 4.00149 2.91656 4.42243 2.91656H15.5762C15.9972 2.91656 16.3535 3.0624 16.6451 3.35406C16.9368 3.64573 17.0826 4.00204 17.0826 4.42298V15.5768C17.0826 15.9977 16.9368 16.354 16.6451 16.6457C16.3535 16.9374 15.9972 17.0832 15.5762 17.0832H4.42243ZM4.42243 15.8332H15.5762C15.6403 15.8332 15.6991 15.8065 15.7525 15.7531C15.806 15.6997 15.8327 15.6409 15.8327 15.5768V4.42298C15.8327 4.35887 15.806 4.3001 15.7525 4.24667C15.6991 4.19325 15.6403 4.16654 15.5762 4.16654H4.42243C4.35832 4.16654 4.29955 4.19325 4.24612 4.24667C4.1927 4.3001 4.16599 4.35887 4.16599 4.42298V15.5768C4.16599 15.6409 4.1927 15.6997 4.24612 15.7531C4.29955 15.8065 4.35832 15.8332 4.42243 15.8332ZM6.66599 13.9582H10.8327C11.01 13.9582 11.1585 13.8984 11.2782 13.7787C11.3978 13.6591 11.4576 13.5106 11.4576 13.3332C11.4576 13.1559 11.3978 13.0074 11.2782 12.8877C11.1585 12.7681 11.01 12.7082 10.8327 12.7082H6.66599C6.48865 12.7082 6.34015 12.7681 6.22049 12.8877C6.10084 13.0074 6.04102 13.1559 6.04102 13.3332C6.04102 13.5106 6.10084 13.6591 6.22049 13.7787C6.34015 13.8984 6.48865 13.9582 6.66599 13.9582ZM6.66599 10.6249H13.3327C13.51 10.6249 13.6585 10.565 13.7782 10.4454C13.8978 10.3257 13.9576 10.1772 13.9576 9.99988C13.9576 9.82253 13.8978 9.67403 13.7782 9.55438C13.6585 9.43473 13.51 9.3749 13.3327 9.3749H6.66599C6.48865 9.3749 6.34015 9.43473 6.22049 9.55438C6.10084 9.67403 6.04102 9.82253 6.04102 9.99988C6.04102 10.1772 6.10084 10.3257 6.22049 10.4454C6.34015 10.565 6.48865 10.6249 6.66599 10.6249ZM6.66599 7.29152H13.3327C13.51 7.29152 13.6585 7.2317 13.7782 7.11204C13.8978 6.99239 13.9576 6.84389 13.9576 6.66654C13.9576 6.4892 13.8978 6.3407 13.7782 6.22105C13.6585 6.10139 13.51 6.04157 13.3327 6.04157H6.66599C6.48865 6.04157 6.34015 6.10139 6.22049 6.22105C6.10084 6.3407 6.04102 6.4892 6.04102 6.66654C6.04102 6.84389 6.10084 6.99239 6.22049 7.11204C6.34015 7.2317 6.48865 7.29152 6.66599 7.29152Z" fill="#808593"/>
</g>
</g>
</svg>
