<svg width="25" height="24" viewBox="0 0 25 24" fill="none" xmlns="http://www.w3.org/2000/svg">
<mask id="mask0_2726_10221" style="mask-type:alpha" maskUnits="userSpaceOnUse" x="0" y="0" width="25" height="24">
<rect x="0.5" width="24" height="24" fill="#D9D9D9"/>
</mask>
<g mask="url(#mask0_2726_10221)">
<path d="M13 17.9718L9.03075 19.6769C8.4282 19.9348 7.85577 19.8854 7.31347 19.5287C6.77116 19.1721 6.5 18.6704 6.5 18.0238V5.80904C6.5 5.30353 6.675 4.87565 7.025 4.52539C7.375 4.17513 7.80257 4 8.3077 4H17.6922C18.1974 4 18.625 4.17513 18.975 4.52539C19.325 4.87565 19.5 5.30353 19.5 5.80904V18.0238C19.5 18.6704 19.2288 19.1721 18.6865 19.5287C18.1442 19.8854 17.5717 19.9348 16.9692 19.6769L13 17.9718ZM13 16.3091L17.5672 18.2778C17.6698 18.3227 17.7676 18.3131 17.8605 18.249C17.9535 18.1848 18 18.0982 18 17.9891V5.80904C18 5.73205 17.9679 5.66147 17.9038 5.59731C17.8397 5.53316 17.7692 5.50109 17.6922 5.50109H8.3077C8.23077 5.50109 8.16024 5.53316 8.09613 5.59731C8.03202 5.66147 7.99997 5.73205 7.99997 5.80904V17.9891C7.99997 18.0982 8.04645 18.1848 8.1394 18.249C8.23237 18.3131 8.33013 18.3227 8.4327 18.2778L13 16.3091Z" fill="#808593"/>
</g>
</svg>
