<svg width="20" height="20" viewBox="0 0 20 20" fill="none" xmlns="http://www.w3.org/2000/svg">
<g id="cake">
<mask id="mask0_1499_18856" style="mask-type:alpha" maskUnits="userSpaceOnUse" x="0" y="0" width="20" height="20">
<rect id="Bounding box" width="20" height="20" fill="#D9D9D9"/>
</mask>
<g mask="url(#mask0_1499_18856)">
<path id="cake_2" d="M3.63716 17.9168C3.43311 17.9168 3.2619 17.8449 3.12356 17.7012C2.9852 17.5575 2.91602 17.3836 2.91602 17.1796V13.1091C2.91602 12.6935 3.06319 12.3385 3.35754 12.0442C3.65187 11.7499 4.00684 11.6027 4.42243 11.6027H4.58268V8.20526C4.58268 7.78966 4.72986 7.43469 5.0242 7.14036C5.31854 6.84603 5.6735 6.69886 6.0891 6.69886H9.37435V5.47448C9.12968 5.31317 8.92963 5.1238 8.77418 4.90638C8.61874 4.68896 8.54102 4.42962 8.54102 4.12834C8.54102 3.94138 8.57733 3.76056 8.64997 3.58588C8.72263 3.4112 8.83161 3.25121 8.97691 3.10592L9.7317 2.35113C9.75413 2.32869 9.84334 2.28969 9.99933 2.23413C10.0271 2.23413 10.1163 2.27313 10.267 2.35113L11.0217 3.10592C11.1671 3.25121 11.276 3.4112 11.3487 3.58588C11.4213 3.76056 11.4576 3.94138 11.4576 4.12834C11.4576 4.42962 11.3799 4.68896 11.2245 4.90638C11.069 5.1238 10.869 5.31317 10.6243 5.47448V6.69886H13.9096C14.3252 6.69886 14.6801 6.84603 14.9745 7.14036C15.2688 7.43469 15.416 7.78966 15.416 8.20526V11.6027H15.5762C15.9918 11.6027 16.3468 11.7499 16.6411 12.0442C16.9355 12.3385 17.0826 12.6935 17.0826 13.1091V17.1796C17.0826 17.3836 17.0108 17.5575 16.8671 17.7012C16.7234 17.8449 16.5495 17.9168 16.3455 17.9168H3.63716ZM5.83266 11.6027H14.166V8.20526C14.166 8.13047 14.142 8.06903 14.0939 8.02094C14.0458 7.97286 13.9843 7.94882 13.9096 7.94882H6.0891C6.01431 7.94882 5.95287 7.97286 5.90479 8.02094C5.8567 8.06903 5.83266 8.13047 5.83266 8.20526V11.6027ZM4.16599 16.6668H15.8327V13.1091C15.8327 13.0343 15.8086 12.9729 15.7605 12.9248C15.7125 12.8767 15.651 12.8527 15.5762 12.8527H4.42243C4.34764 12.8527 4.2862 12.8767 4.23812 12.9248C4.19004 12.9729 4.16599 13.0343 4.16599 13.1091V16.6668Z" fill="#808593"/>
</g>
</g>
</svg>
