<svg width="15" height="14" viewBox="0 0 15 14" fill="none" xmlns="http://www.w3.org/2000/svg">
<g id="close_small">
<mask id="mask0_2167_27670" style="mask-type:alpha" maskUnits="userSpaceOnUse" x="0" y="0" width="15" height="14">
<rect id="Bounding box" x="0.769531" width="14" height="14" fill="#D9D9D9"/>
</mask>
<g mask="url(#mask0_2167_27670)">
<path id="close_small_2" d="M7.76881 7.62048L5.87521 9.51409C5.7907 9.5986 5.68825 9.63991 5.56784 9.63804C5.44744 9.63617 5.34498 9.59299 5.26048 9.50848C5.17597 9.42397 5.13372 9.32058 5.13372 9.19831C5.13372 9.07604 5.17597 8.97265 5.26048 8.88815L7.14848 7.00015L5.25486 5.12113C5.17036 5.03662 5.12904 4.93323 5.13092 4.81095C5.13279 4.68868 5.17597 4.58529 5.26048 4.50078C5.34498 4.41628 5.44838 4.37402 5.57065 4.37402C5.69292 4.37402 5.7963 4.41628 5.88081 4.50078L7.76881 6.3944L9.64783 4.50078C9.73234 4.41628 9.83479 4.37402 9.9552 4.37402C10.0756 4.37402 10.1781 4.41628 10.2626 4.50078C10.353 4.59128 10.3983 4.69616 10.3983 4.81545C10.3983 4.93473 10.353 5.03662 10.2626 5.12113L8.37456 7.00015L10.2682 8.89375C10.3527 8.97825 10.3949 9.08071 10.3949 9.20112C10.3949 9.32152 10.3527 9.42397 10.2682 9.50848C10.1777 9.59896 10.0728 9.64421 9.95351 9.64421C9.83423 9.64421 9.73234 9.59896 9.64783 9.50848L7.76881 7.62048Z" fill="#808593"/>
</g>
</g>
</svg>
