<svg width="21" height="21" viewBox="0 0 21 21" fill="none" xmlns="http://www.w3.org/2000/svg">
<mask id="mask0_2888_12379" style="mask-type:alpha" maskUnits="userSpaceOnUse" x="0" y="0" width="21" height="21">
<rect width="21" height="21" fill="#D9D9D9"/>
</mask>
<g mask="url(#mask0_2888_12379)">
<path d="M6.39424 17.9371C5.95926 17.9371 5.5869 17.7822 5.27715 17.4724C4.96738 17.1627 4.8125 16.7903 4.8125 16.3553V5.24959H4.59375C4.40781 5.24959 4.25195 5.18667 4.12617 5.06083C4.00039 4.935 3.9375 4.77908 3.9375 4.59305C3.9375 4.40704 4.00039 4.25122 4.12617 4.12559C4.25195 3.99994 4.40781 3.93711 4.59375 3.93711H7.87498C7.87498 3.72285 7.95042 3.54028 8.1013 3.3894C8.25218 3.23853 8.43474 3.16309 8.649 3.16309H12.351C12.5652 3.16309 12.7478 3.23853 12.8987 3.3894C13.0495 3.54028 13.125 3.72285 13.125 3.93711H16.4062C16.5921 3.93711 16.748 4.00003 16.8738 4.12587C16.9996 4.25171 17.0625 4.40763 17.0625 4.59364C17.0625 4.77967 16.9996 4.9355 16.8738 5.06114C16.748 5.18677 16.5921 5.24959 16.4062 5.24959H16.1875V16.3553C16.1875 16.7903 16.0326 17.1627 15.7228 17.4724C15.4131 17.7822 15.0407 17.9371 14.6057 17.9371H6.39424ZM14.875 5.24959H6.12498V16.3553C6.12498 16.4339 6.15022 16.4984 6.20071 16.5489C6.2512 16.5993 6.31571 16.6246 6.39424 16.6246H14.6057C14.6842 16.6246 14.7488 16.5993 14.7992 16.5489C14.8497 16.4984 14.875 16.4339 14.875 16.3553V5.24959ZM8.8849 14.8746C9.07091 14.8746 9.22674 14.8117 9.35237 14.6859C9.47802 14.5601 9.54085 14.4043 9.54085 14.2184V7.65582C9.54085 7.4699 9.47793 7.31404 9.35209 7.18826C9.22625 7.06248 9.07032 6.99959 8.88431 6.99959C8.69829 6.99959 8.54246 7.06248 8.41682 7.18826C8.29119 7.31404 8.22837 7.4699 8.22837 7.65582V14.2184C8.22837 14.4043 8.29129 14.5601 8.41713 14.6859C8.54295 14.8117 8.69888 14.8746 8.8849 14.8746ZM12.1156 14.8746C12.3017 14.8746 12.4575 14.8117 12.5831 14.6859C12.7088 14.5601 12.7716 14.4043 12.7716 14.2184V7.65582C12.7716 7.4699 12.7087 7.31404 12.5828 7.18826C12.457 7.06248 12.3011 6.99959 12.1151 6.99959C11.929 6.99959 11.7732 7.06248 11.6476 7.18826C11.5219 7.31404 11.4591 7.4699 11.4591 7.65582V14.2184C11.4591 14.4043 11.522 14.5601 11.6479 14.6859C11.7737 14.8117 11.9296 14.8746 12.1156 14.8746Z" fill="#50545E"/>
</g>
</svg>
