<svg width="21" height="21" viewBox="0 0 21 21" fill="none" xmlns="http://www.w3.org/2000/svg">
<mask id="mask0_2888_13806" style="mask-type:alpha" maskUnits="userSpaceOnUse" x="0" y="0" width="21" height="21">
<rect width="21" height="21" fill="#D9D9D9"/>
</mask>
<g mask="url(#mask0_2888_13806)">
<path d="M5.33413 17.0626C5.14821 17.0626 4.99236 16.9997 4.86658 16.8739C4.74079 16.748 4.6779 16.5921 4.6779 16.4061C4.6779 16.2201 4.74079 16.0642 4.86658 15.9386C4.99236 15.813 5.14821 15.7502 5.33413 15.7502H6.01902L7.70505 10.098C7.80491 9.75249 7.99674 9.47793 8.28056 9.27432C8.5644 9.07072 8.87793 8.96892 9.22117 8.96892H11.7788C12.1221 8.96892 12.4356 9.07072 12.7194 9.27432C13.0033 9.47793 13.1951 9.75249 13.2949 10.098L14.981 15.7502H15.6659C15.8518 15.7502 16.0076 15.8131 16.1334 15.9389C16.2592 16.0647 16.3221 16.2207 16.3221 16.4067C16.3221 16.5927 16.2592 16.7485 16.1334 16.8742C16.0076 16.9998 15.8518 17.0626 15.6659 17.0626H5.33413ZM7.40215 15.7502H13.5979L12.0313 10.4749C12.0144 10.4132 11.9822 10.3655 11.9345 10.3319C11.8868 10.2982 11.8321 10.2814 11.7704 10.2814H9.22957C9.16786 10.2814 9.11318 10.2982 9.0655 10.3319C9.01782 10.3655 8.98556 10.4132 8.96873 10.4749L7.40215 15.7502ZM9.84377 6.29344V3.66844C9.84377 3.4825 9.90668 3.32664 10.0325 3.20086C10.1583 3.07509 10.3143 3.01221 10.5003 3.01221C10.6863 3.01221 10.8421 3.07509 10.9678 3.20086C11.0934 3.32664 11.1562 3.4825 11.1562 3.66844V6.29344C11.1562 6.47937 11.0933 6.63523 10.9675 6.76099C10.8417 6.88677 10.6857 6.94966 10.4997 6.94966C10.3137 6.94966 10.1579 6.88677 10.0322 6.76099C9.90659 6.63523 9.84377 6.47937 9.84377 6.29344ZM14.3702 7.62613L16.238 5.76675C16.3591 5.64561 16.5092 5.5842 16.6881 5.58252C16.867 5.58083 17.022 5.64553 17.1531 5.77664C17.2733 5.89682 17.3334 6.04721 17.3334 6.22781C17.3334 6.40841 17.2728 6.55929 17.1517 6.68045L15.2923 8.5617C15.1622 8.69181 15.0099 8.75827 14.8355 8.76109C14.661 8.76389 14.5059 8.69743 14.3702 8.5617C14.2345 8.42596 14.1666 8.27003 14.1666 8.09392C14.1666 7.9178 14.2345 7.76187 14.3702 7.62613ZM16.625 11.7622H19.25C19.4359 11.7622 19.5918 11.8251 19.7176 11.9509C19.8433 12.0768 19.9062 12.2327 19.9062 12.4187C19.9062 12.6047 19.8433 12.7606 19.7176 12.8862C19.5918 13.0118 19.4359 13.0747 19.25 13.0747H16.625C16.4391 13.0747 16.2832 13.0117 16.1574 12.8859C16.0317 12.7601 15.9688 12.6042 15.9688 12.4181C15.9688 12.2321 16.0317 12.0763 16.1574 11.9507C16.2832 11.825 16.4391 11.7622 16.625 11.7622ZM5.70771 8.54822L3.84834 6.68045C3.72718 6.55929 3.66576 6.40925 3.66408 6.23033C3.66239 6.0514 3.7271 5.8964 3.8582 5.76531C3.97838 5.64513 4.12878 5.58504 4.30938 5.58504C4.48998 5.58504 4.64085 5.64561 4.76201 5.76675L6.64326 7.62613C6.77339 7.75625 6.83985 7.90854 6.84265 8.08299C6.84545 8.25742 6.77899 8.4125 6.64326 8.54822C6.50752 8.68396 6.3516 8.75184 6.17549 8.75184C5.99937 8.75184 5.84344 8.68396 5.70771 8.54822ZM1.75 13.0747C1.56406 13.0747 1.40821 13.0117 1.28244 12.8859C1.15665 12.7601 1.09375 12.6042 1.09375 12.4181C1.09375 12.2321 1.15664 12.0763 1.28242 11.9507C1.40819 11.825 1.56404 11.7622 1.74998 11.7622H4.37498C4.56092 11.7622 4.71677 11.8251 4.84253 11.9509C4.96832 12.0768 5.03121 12.2327 5.03121 12.4187C5.03121 12.6047 4.96832 12.7606 4.84253 12.8862C4.71677 13.0118 4.56092 13.0747 4.37498 13.0747H1.75Z" fill="#50545E"/>
</g>
</svg>
