<svg width="21" height="21" viewBox="0 0 21 21" fill="none" xmlns="http://www.w3.org/2000/svg">
<mask id="mask0_2888_11351" style="mask-type:alpha" maskUnits="userSpaceOnUse" x="0" y="0" width="21" height="21">
<rect width="21" height="21" fill="#D9D9D9"/>
</mask>
<g mask="url(#mask0_2888_11351)">
<path d="M12.0985 18.0216V16.8303C12.0985 16.7248 12.1176 16.6244 12.1557 16.5291C12.1939 16.4337 12.2539 16.3451 12.3358 16.2632L16.8488 11.7721C16.9576 11.6689 17.0754 11.5937 17.2021 11.5466C17.3289 11.4995 17.4556 11.476 17.5824 11.476C17.7181 11.476 17.8508 11.5018 17.9804 11.5533C18.1099 11.605 18.2263 11.6824 18.3295 11.7856L19.1389 12.6033C19.2331 12.7122 19.306 12.8299 19.3576 12.9567C19.4092 13.0835 19.435 13.2102 19.435 13.337C19.435 13.4637 19.4115 13.5928 19.3644 13.724C19.3172 13.8553 19.2421 13.9753 19.1389 14.0841L14.6478 18.5752C14.5659 18.6571 14.4773 18.7171 14.3819 18.7552C14.2866 18.7934 14.1862 18.8125 14.0807 18.8125H12.8894C12.6639 18.8125 12.4757 18.737 12.3248 18.5861C12.174 18.4352 12.0985 18.2471 12.0985 18.0216ZM13.1418 17.7692H13.973L16.8134 14.9153L16.4197 14.4913L16.0041 14.0891L13.1418 16.9379V17.7692ZM5.51924 18.8125C5.07725 18.8125 4.70312 18.6593 4.39688 18.3531C4.09063 18.0468 3.9375 17.6727 3.9375 17.2307V3.76924C3.9375 3.32725 4.09063 2.95313 4.39688 2.64688C4.70312 2.34063 5.07725 2.1875 5.51924 2.1875H11.8142C12.0251 2.1875 12.2278 2.22845 12.4225 2.31035C12.6171 2.39224 12.7862 2.50497 12.9298 2.64856L16.6014 6.32015C16.745 6.46375 16.8577 6.63287 16.9396 6.82749C17.0215 7.02212 17.0625 7.22488 17.0625 7.43577V9.22952H15.75V7.43746H12.6034C12.3779 7.43746 12.1897 7.36201 12.0388 7.21112C11.8879 7.06024 11.8125 6.87206 11.8125 6.64659V3.49998H5.51924C5.45192 3.49998 5.39021 3.52802 5.33411 3.58411C5.27802 3.64021 5.24998 3.70192 5.24998 3.76924V17.2307C5.24998 17.298 5.27802 17.3597 5.33411 17.4158C5.39021 17.4719 5.45192 17.5 5.51924 17.5H10.1803V18.8125H5.51924ZM16.4197 14.4913L16.0041 14.0891L16.8134 14.9153L16.4197 14.4913Z" fill="#414244"/>
</g>
</svg>
