<svg width="20" height="20" viewBox="0 0 20 20" fill="none" xmlns="http://www.w3.org/2000/svg">
<g id="error">
<mask id="mask0_2455_11311" style="mask-type:alpha" maskUnits="userSpaceOnUse" x="0" y="0" width="20" height="20">
<rect id="Bounding box" width="20" height="20" fill="#D9D9D9"/>
</mask>
<g mask="url(#mask0_2455_11311)">
<path id="error_2" d="M10.0016 13.9419C10.1923 13.9419 10.3522 13.8774 10.4812 13.7484C10.6102 13.6194 10.6747 13.4596 10.6747 13.2689C10.6747 13.0782 10.6102 12.9183 10.4812 12.7893C10.3522 12.6603 10.1923 12.5958 10.0016 12.5958C9.8109 12.5958 9.65104 12.6603 9.52204 12.7893C9.39304 12.9183 9.32854 13.0782 9.32854 13.2689C9.32854 13.4596 9.39304 13.6194 9.52204 13.7484C9.65104 13.8774 9.8109 13.9419 10.0016 13.9419ZM10.0019 10.8971C10.179 10.8971 10.3275 10.8372 10.4471 10.7174C10.5668 10.5976 10.6266 10.4492 10.6266 10.2721V6.52207C10.6266 6.345 10.5667 6.19657 10.4468 6.07678C10.327 5.95699 10.1785 5.89709 10.0013 5.89709C9.82417 5.89709 9.67576 5.95699 9.55611 6.07678C9.43645 6.19657 9.37663 6.345 9.37663 6.52207V10.2721C9.37663 10.4492 9.43654 10.5976 9.55638 10.7174C9.67622 10.8372 9.82473 10.8971 10.0019 10.8971ZM10.003 17.9163C8.90806 17.9163 7.87886 17.7085 6.91542 17.293C5.95196 16.8774 5.11389 16.3135 4.40121 15.6011C3.68852 14.8887 3.1243 14.051 2.70857 13.088C2.29283 12.125 2.08496 11.096 2.08496 10.001C2.08496 8.90611 2.29274 7.87691 2.70829 6.91347C3.12385 5.95001 3.68781 5.11194 4.40017 4.39926C5.11254 3.68656 5.95025 3.12235 6.91327 2.70661C7.87629 2.29088 8.90527 2.08301 10.0002 2.08301C11.0952 2.08301 12.1244 2.29079 13.0878 2.70634C14.0513 3.1219 14.8893 3.68586 15.602 4.39822C16.3147 5.11059 16.8789 5.94829 17.2947 6.91132C17.7104 7.87434 17.9183 8.90331 17.9183 9.99826C17.9183 11.0932 17.7105 12.1224 17.2949 13.0858C16.8794 14.0493 16.3154 14.8874 15.603 15.6C14.8907 16.3127 14.053 16.877 13.0899 17.2927C12.1269 17.7084 11.0979 17.9163 10.003 17.9163ZM10.0016 16.6663C11.8627 16.6663 13.4391 16.0205 14.7308 14.7288C16.0224 13.4372 16.6683 11.8608 16.6683 9.99965C16.6683 8.13854 16.0224 6.56215 14.7308 5.27049C13.4391 3.97882 11.8627 3.33299 10.0016 3.33299C8.1405 3.33299 6.56411 3.97882 5.27244 5.27049C3.98077 6.56215 3.33494 8.13854 3.33494 9.99965C3.33494 11.8608 3.98077 13.4372 5.27244 14.7288C6.56411 16.0205 8.1405 16.6663 10.0016 16.6663Z" fill="#FF5500"/>
</g>
</g>
</svg>
