<svg width="25" height="25" viewBox="0 0 25 25" fill="none" xmlns="http://www.w3.org/2000/svg">
<g id="expand_circle_right">
<mask id="mask0_1499_18356" style="mask-type:alpha" maskUnits="userSpaceOnUse" x="0" y="0" width="25" height="25">
<rect id="Bounding box" x="0.5" y="0.5" width="24" height="24" fill="#D9D9D9"/>
</mask>
<g mask="url(#mask0_1499_18356)">
<path id="expand_circle_right_2" d="M13.175 12.5L10.8 14.875C10.6167 15.0583 10.525 15.2875 10.525 15.5625C10.525 15.8375 10.6167 16.075 10.8 16.275C11 16.475 11.2375 16.575 11.5125 16.575C11.7875 16.575 12.025 16.475 12.225 16.275L15.3 13.2C15.5 13 15.6 12.7667 15.6 12.5C15.6 12.2333 15.5 12 15.3 11.8L12.2 8.7C12 8.5 11.7667 8.40417 11.5 8.4125C11.2333 8.42083 11 8.525 10.8 8.725C10.6167 8.925 10.5208 9.15833 10.5125 9.425C10.5042 9.69167 10.6 9.925 10.8 10.125L13.175 12.5ZM12.5 22.5C11.1167 22.5 9.81667 22.2375 8.6 21.7125C7.38333 21.1875 6.325 20.475 5.425 19.575C4.525 18.675 3.8125 17.6167 3.2875 16.4C2.7625 15.1833 2.5 13.8833 2.5 12.5C2.5 11.1167 2.7625 9.81667 3.2875 8.6C3.8125 7.38333 4.525 6.325 5.425 5.425C6.325 4.525 7.38333 3.8125 8.6 3.2875C9.81667 2.7625 11.1167 2.5 12.5 2.5C13.8833 2.5 15.1833 2.7625 16.4 3.2875C17.6167 3.8125 18.675 4.525 19.575 5.425C20.475 6.325 21.1875 7.38333 21.7125 8.6C22.2375 9.81667 22.5 11.1167 22.5 12.5C22.5 13.8833 22.2375 15.1833 21.7125 16.4C21.1875 17.6167 20.475 18.675 19.575 19.575C18.675 20.475 17.6167 21.1875 16.4 21.7125C15.1833 22.2375 13.8833 22.5 12.5 22.5Z" fill="#CFD5E3"/>
</g>
</g>
</svg>
