<svg width="29" height="28" viewBox="0 0 29 28" fill="none" xmlns="http://www.w3.org/2000/svg">
<g id="forward_to_inbox">
<mask id="mask0_2435_20604" style="mask-type:alpha" maskUnits="userSpaceOnUse" x="0" y="0" width="29" height="28">
<rect id="Bounding box" x="0.5" width="28" height="28" fill="#D9D9D9"/>
</mask>
<g mask="url(#mask0_2435_20604)">
<path id="forward_to_inbox_2" d="M23.8327 6.99997H5.16599V20.641C5.16599 20.7457 5.19964 20.8317 5.26696 20.899C5.33428 20.9663 5.42029 21 5.525 21H15.0827C15.331 21 15.5389 21.0837 15.7064 21.2512C15.8739 21.4188 15.9577 21.6267 15.9577 21.8749C15.9577 22.1232 15.8739 22.3311 15.7064 22.4986C15.5389 22.6662 15.331 22.7499 15.0827 22.7499H5.525C4.93568 22.7499 4.43685 22.5458 4.02852 22.1374C3.62018 21.7291 3.41602 21.2303 3.41602 20.641V7.35898C3.41602 6.76966 3.62018 6.27083 4.02852 5.8625C4.43685 5.45417 4.93568 5.25 5.525 5.25H23.4736C24.063 5.25 24.5618 5.45417 24.9701 5.8625C25.3785 6.27083 25.5826 6.76966 25.5826 7.35898V14.5833C25.5826 14.8316 25.4989 15.0395 25.3313 15.2071C25.1638 15.3746 24.9559 15.4583 24.7076 15.4583C24.4593 15.4583 24.2514 15.3746 24.0839 15.2071C23.9164 15.0395 23.8327 14.8316 23.8327 14.5833V6.99997ZM5.16599 6.99997V21V15.4583V15.6019V6.99997ZM14.4993 12.8333L23.8327 6.99997V8.68262L15.0557 14.1817C14.8762 14.2909 14.6908 14.3455 14.4993 14.3455C14.3079 14.3455 14.1224 14.2909 13.9429 14.1817L5.16599 8.77237V6.99997L14.4993 12.8333ZM23.3413 22.7499H18.9416C18.6933 22.7499 18.4854 22.6662 18.3179 22.4986C18.1504 22.3311 18.0666 22.1232 18.0666 21.8749C18.0666 21.6267 18.1504 21.4188 18.3179 21.2512C18.4854 21.0837 18.6933 21 18.9416 21H23.3526L21.8089 19.4564C21.6354 19.2829 21.5498 19.0779 21.5521 18.8416C21.5543 18.6053 21.6459 18.4004 21.8269 18.2269C22.0004 18.0653 22.2053 17.9835 22.4416 17.9812C22.6779 17.979 22.8829 18.0646 23.0564 18.2381L25.9551 21.1368C26.0642 21.246 26.1443 21.3612 26.1951 21.4823C26.246 21.6035 26.2714 21.7344 26.2714 21.8749C26.2714 22.0081 26.246 22.1371 26.1951 22.262C26.1443 22.3868 26.0642 22.5039 25.9551 22.6131L23.0451 25.523C22.8836 25.6845 22.6835 25.7664 22.445 25.7687C22.2064 25.7709 22.0004 25.6853 21.8269 25.5118C21.6653 25.3502 21.5846 25.1491 21.5846 24.9083C21.5846 24.6675 21.6653 24.4663 21.8269 24.3048L23.3413 22.7499Z" fill="#FF743D"/>
</g>
</g>
</svg>
