<svg width="20" height="20" viewBox="0 0 20 20" fill="none" xmlns="http://www.w3.org/2000/svg">
<mask id="mask0_2460_801" style="mask-type:alpha" maskUnits="userSpaceOnUse" x="0" y="0" width="20" height="20">
<rect width="20" height="20" fill="#D9D9D9"/>
</mask>
<g mask="url(#mask0_2460_801)">
<path d="M9.99146 14.6796C10.2294 14.6796 10.4304 14.5975 10.5944 14.4332C10.7584 14.2689 10.8404 14.0678 10.8404 13.8298C10.8404 13.5919 10.7582 13.3909 10.5939 13.2269C10.4296 13.0629 10.2285 12.9809 9.99057 12.9809C9.75262 12.9809 9.55166 13.0631 9.38767 13.2274C9.22367 13.3916 9.14167 13.5928 9.14167 13.8307C9.14167 14.0687 9.22382 14.2696 9.38811 14.4336C9.5524 14.5976 9.75352 14.6796 9.99146 14.6796ZM10.002 17.9168C8.90708 17.9168 7.87789 17.709 6.91444 17.2935C5.95098 16.8779 5.11292 16.3139 4.40023 15.6016C3.68754 14.8892 3.12332 14.0515 2.70759 13.0885C2.29185 12.1255 2.08398 11.0965 2.08398 10.0015C2.08398 8.90659 2.29176 7.8774 2.70732 6.91395C3.12287 5.9505 3.68683 5.11243 4.39919 4.39975C5.11157 3.68705 5.94927 3.12284 6.9123 2.7071C7.87531 2.29137 8.90429 2.0835 9.99924 2.0835C11.0942 2.0835 12.1234 2.29127 13.0868 2.70683C14.0503 3.12239 14.8883 3.68634 15.601 4.39871C16.3137 5.11108 16.8779 5.94878 17.2937 6.91181C17.7094 7.87482 17.9173 8.9038 17.9173 9.99875C17.9173 11.0937 17.7095 12.1229 17.2939 13.0863C16.8784 14.0498 16.3144 14.8879 15.6021 15.6005C14.8897 16.3132 14.052 16.8774 13.089 17.2932C12.126 17.7089 11.097 17.9168 10.002 17.9168ZM10.0006 16.6668C11.8617 16.6668 13.4381 16.021 14.7298 14.7293C16.0215 13.4376 16.6673 11.8613 16.6673 10.0001C16.6673 8.13903 16.0215 6.56264 14.7298 5.27098C13.4381 3.97931 11.8617 3.33348 10.0006 3.33348C8.13952 3.33348 6.56313 3.97931 5.27146 5.27098C3.9798 6.56264 3.33396 8.13903 3.33396 10.0001C3.33396 11.8613 3.9798 13.4376 5.27146 14.7293C6.56313 16.021 8.13952 16.6668 10.0006 16.6668ZM10.0681 6.43283C10.4526 6.43283 10.7854 6.55386 11.0663 6.79593C11.3473 7.038 11.4878 7.34059 11.4878 7.70369C11.4878 8.00924 11.3981 8.28274 11.2186 8.52418C11.0391 8.76564 10.834 8.99054 10.6032 9.19887C10.3007 9.46722 10.0344 9.76241 9.80421 10.0844C9.57406 10.4064 9.45097 10.7651 9.43494 11.1604C9.4296 11.3121 9.48301 11.4392 9.59519 11.5418C9.70737 11.6444 9.83825 11.6956 9.98782 11.6956C10.1481 11.6956 10.2837 11.6422 10.3949 11.5354C10.506 11.4286 10.577 11.2977 10.608 11.1428C10.6635 10.8565 10.7819 10.6014 10.963 10.3776C11.144 10.1537 11.3402 9.94089 11.5515 9.73906C11.8552 9.44303 12.1203 9.12025 12.3468 8.77073C12.5733 8.42118 12.6865 8.03132 12.6865 7.60112C12.6865 6.94087 12.4264 6.39841 11.9061 5.97373C11.3858 5.54905 10.7784 5.33671 10.084 5.33671C9.58824 5.33671 9.12083 5.44648 8.68174 5.66604C8.24264 5.88558 7.90076 6.20582 7.65609 6.62677C7.58024 6.75603 7.55589 6.89209 7.58305 7.03496C7.6102 7.1778 7.68351 7.28627 7.80299 7.36035C7.95505 7.445 8.11121 7.46916 8.27146 7.43283C8.43171 7.39651 8.56793 7.30517 8.68011 7.15881C8.84892 6.93978 9.05324 6.76403 9.29309 6.63156C9.53294 6.49907 9.79128 6.43283 10.0681 6.43283Z" fill="#B7BECF"/>
</g>
</svg>
