<svg width="22" height="22" viewBox="0 0 22 22" fill="none" xmlns="http://www.w3.org/2000/svg">
<mask id="mask0_676_4971" style="mask-type:alpha" maskUnits="userSpaceOnUse" x="0" y="0" width="22" height="22">
<rect width="22" height="22" fill="#D9D9D9"/>
</mask>
<g mask="url(#mask0_676_4971)">
<path d="M6.41664 12.4805C6.00945 12.4805 5.66085 12.3355 5.37086 12.0456C5.08089 11.7556 4.93591 11.407 4.93591 10.9998C4.93591 10.5926 5.08089 10.244 5.37086 9.954C5.66085 9.66402 6.00945 9.51904 6.41664 9.51904C6.82384 9.51904 7.17244 9.66402 7.46242 9.954C7.7524 10.244 7.89738 10.5926 7.89738 10.9998C7.89738 11.407 7.7524 11.7556 7.46242 12.0456C7.17244 12.3355 6.82384 12.4805 6.41664 12.4805ZM6.41664 16.0414C5.01619 16.0414 3.82581 15.5515 2.84549 14.5715C1.86516 13.5916 1.375 12.4017 1.375 11.0019C1.375 9.60197 1.86516 8.41138 2.84549 7.43009C3.82581 6.44878 5.01619 5.95813 6.41664 5.95813C7.39911 5.95813 8.28757 6.21169 9.08201 6.7188C9.87646 7.2259 10.4829 7.88901 10.9012 8.70813H18.8075C18.9154 8.70813 19.02 8.72811 19.1211 8.76808C19.2223 8.80803 19.3158 8.87091 19.4016 8.95671L20.8647 10.4198C20.9505 10.5056 21.011 10.5965 21.0463 10.6925C21.0815 10.7884 21.0991 10.8913 21.0991 11.0009C21.0991 11.1106 21.0815 11.2131 21.0463 11.3083C21.011 11.4035 20.9505 11.4939 20.8647 11.5797L18.4391 13.9965C18.3704 14.0676 18.288 14.1244 18.1919 14.167C18.0958 14.2097 18.0001 14.2357 17.905 14.2451C17.8098 14.2545 17.7146 14.2454 17.6194 14.2178C17.5242 14.1901 17.4337 14.144 17.3479 14.0794L16.2179 13.2297L14.9381 14.1799C14.8676 14.2351 14.7924 14.2751 14.7125 14.2997C14.6326 14.3244 14.5497 14.3368 14.4639 14.3368C14.3781 14.3368 14.2929 14.323 14.2083 14.2953C14.1237 14.2677 14.0462 14.2292 13.9756 14.1799L12.6835 13.2914H10.9012C10.4829 14.1047 9.87646 14.7663 9.08201 15.2763C8.28757 15.7864 7.39911 16.0414 6.41664 16.0414ZM6.41664 14.6664C7.29571 14.6664 8.05696 14.4008 8.70038 13.8697C9.3438 13.3384 9.76365 12.6874 9.9599 11.9164H13.1154L14.4357 12.8296C14.4299 12.8296 14.4284 12.8319 14.4313 12.8366C14.4343 12.8413 14.4357 12.839 14.4357 12.8296L16.2268 11.5198L17.7833 12.7097L19.4933 10.9998L18.5766 10.0831H9.9599C9.76365 9.31218 9.3438 8.66111 8.70038 8.1299C8.05696 7.5987 7.29571 7.33311 6.41664 7.33311C5.40831 7.33311 4.54512 7.69214 3.82706 8.41019C3.109 9.12825 2.74998 9.99144 2.74998 10.9998C2.74998 12.0081 3.109 12.8713 3.82706 13.5894C4.54512 14.3074 5.40831 14.6664 6.41664 14.6664Z" fill="#808593"/>
</g>
</svg>
