<svg width="23" height="22" viewBox="0 0 23 22" fill="none" xmlns="http://www.w3.org/2000/svg">
<mask id="mask0_1510_4783" style="mask-type:alpha" maskUnits="userSpaceOnUse" x="0" y="0" width="23" height="22">
<rect x="0.5" width="22" height="22" fill="#D9D9D9"/>
</mask>
<g mask="url(#mask0_1510_4783)">
<path d="M9.71789 10.9999L5.99833 7.26627C5.8714 7.13936 5.80412 6.98218 5.79648 6.79474C5.78884 6.6073 5.85613 6.44248 5.99833 6.30029C6.13113 6.16748 6.29212 6.10107 6.48132 6.10107C6.67054 6.10107 6.83154 6.16748 6.96434 6.30029L11.084 10.42C11.1698 10.5058 11.2304 10.5963 11.2656 10.6915C11.3009 10.7866 11.3185 10.8895 11.3185 10.9999C11.3185 11.1104 11.3009 11.2132 11.2656 11.3084C11.2304 11.4036 11.1698 11.4941 11.084 11.5799L6.96434 15.6996C6.83741 15.8265 6.68023 15.8938 6.49278 15.9015C6.30534 15.9091 6.14052 15.8418 5.99833 15.6996C5.86554 15.5668 5.79914 15.4058 5.79914 15.2166C5.79914 15.0274 5.86554 14.8664 5.99833 14.7336L9.71789 10.9999ZM15.5387 10.9999L11.8191 7.26627C11.6922 7.13936 11.625 6.98218 11.6173 6.79474C11.6097 6.6073 11.677 6.44248 11.8191 6.30029C11.9519 6.16748 12.1129 6.10107 12.3022 6.10107C12.4914 6.10107 12.6524 6.16748 12.7851 6.30029L16.9049 10.42C16.9906 10.5058 17.0512 10.5963 17.0864 10.6915C17.1217 10.7866 17.1393 10.8895 17.1393 10.9999C17.1393 11.1104 17.1217 11.2132 17.0864 11.3084C17.0512 11.4036 16.9906 11.4941 16.9049 11.5799L12.7851 15.6996C12.6582 15.8265 12.5011 15.8938 12.3136 15.9015C12.1262 15.9091 11.9613 15.8418 11.8191 15.6996C11.6863 15.5668 11.62 15.4058 11.62 15.2166C11.62 15.0274 11.6863 14.8664 11.8191 14.7336L15.5387 10.9999Z" fill="#1E1E1E"/>
</g>
</svg>
