<svg width="23" height="22" viewBox="0 0 23 22" fill="none" xmlns="http://www.w3.org/2000/svg">
<mask id="mask0_1510_4745" style="mask-type:alpha" maskUnits="userSpaceOnUse" x="0" y="0" width="23" height="22">
<rect x="0.5" width="22" height="22" fill="#D9D9D9"/>
</mask>
<g mask="url(#mask0_1510_4745)">
<path d="M7.46145 11L11.181 14.7337C11.3079 14.8606 11.3752 15.0178 11.3828 15.2052C11.3905 15.3926 11.3232 15.5575 11.181 15.6997C11.0482 15.8325 10.8872 15.8989 10.698 15.8989C10.5088 15.8989 10.3478 15.8325 10.215 15.6997L6.0953 11.5799C6.00952 11.4942 5.94899 11.4037 5.91373 11.3085C5.87847 11.2133 5.86084 11.1105 5.86084 11C5.86084 10.8895 5.87847 10.7867 5.91373 10.6915C5.94899 10.5963 6.00952 10.5058 6.0953 10.42L10.215 6.30033C10.3419 6.17341 10.4991 6.10612 10.6865 6.09848C10.874 6.09085 11.0388 6.15813 11.181 6.30033C11.3138 6.43313 11.3802 6.59413 11.3802 6.78333C11.3802 6.97253 11.3138 7.13352 11.181 7.26632L7.46145 11ZM13.2823 11L17.0018 14.7337C17.1288 14.8606 17.196 15.0178 17.2037 15.2052C17.2113 15.3926 17.144 15.5575 17.0018 15.6997C16.869 15.8325 16.708 15.8989 16.5188 15.8989C16.3296 15.8989 16.1686 15.8325 16.0358 15.6997L11.9161 11.5799C11.8303 11.4942 11.7698 11.4037 11.7345 11.3085C11.6993 11.2133 11.6817 11.1105 11.6817 11C11.6817 10.8895 11.6993 10.7867 11.7345 10.6915C11.7698 10.5963 11.8303 10.5058 11.9161 10.42L16.0358 6.30033C16.1627 6.17341 16.3199 6.10612 16.5074 6.09848C16.6948 6.09085 16.8596 6.15813 17.0018 6.30033C17.1346 6.43313 17.201 6.59413 17.201 6.78333C17.201 6.97253 17.1346 7.13352 17.0018 7.26632L13.2823 11Z" fill="#1E1E1E"/>
</g>
</svg>
