<svg width="23" height="22" viewBox="0 0 23 22" fill="none" xmlns="http://www.w3.org/2000/svg">
<mask id="mask0_1510_4780" style="mask-type:alpha" maskUnits="userSpaceOnUse" x="0" y="0" width="23" height="22">
<rect x="0.5" width="22" height="22" fill="#D9D9D9"/>
</mask>
<g mask="url(#mask0_1510_4780)">
<path d="M12.3674 10.9999L8.63379 7.26627C8.50686 7.13936 8.44193 6.97983 8.43899 6.78768C8.43605 6.59555 8.50098 6.43308 8.63379 6.30029C8.76658 6.16748 8.92758 6.10107 9.11678 6.10107C9.30598 6.10107 9.46697 6.16748 9.59977 6.30029L13.7195 10.42C13.8053 10.5058 13.8658 10.5963 13.901 10.6915C13.9363 10.7866 13.9539 10.8895 13.9539 10.9999C13.9539 11.1104 13.9363 11.2132 13.901 11.3084C13.8658 11.4036 13.8053 11.4941 13.7195 11.5799L9.59977 15.6996C9.47286 15.8265 9.31333 15.8915 9.12118 15.8944C8.92904 15.8973 8.76658 15.8324 8.63379 15.6996C8.50098 15.5668 8.43457 15.4058 8.43457 15.2166C8.43457 15.0274 8.50098 14.8664 8.63379 14.7336L12.3674 10.9999Z" fill="#1E1E1E"/>
</g>
</svg>
