<svg width="23" height="22" viewBox="0 0 23 22" fill="none" xmlns="http://www.w3.org/2000/svg">
<mask id="mask0_1510_4749" style="mask-type:alpha" maskUnits="userSpaceOnUse" x="0" y="0" width="23" height="22">
<rect x="0.5" width="22" height="22" fill="#D9D9D9"/>
</mask>
<g mask="url(#mask0_1510_4749)">
<path d="M10.0826 11L13.8162 14.7337C13.9432 14.8606 14.0081 15.0201 14.011 15.2123C14.014 15.4044 13.9491 15.5669 13.8162 15.6997C13.6834 15.8325 13.5225 15.8989 13.3333 15.8989C13.1441 15.8989 12.9831 15.8325 12.8503 15.6997L8.73055 11.58C8.64475 11.4942 8.58423 11.4037 8.54899 11.3085C8.51372 11.2133 8.49609 11.1105 8.49609 11C8.49609 10.8895 8.51372 10.7867 8.54899 10.6915C8.58423 10.5963 8.64475 10.5058 8.73055 10.4201L12.8503 6.30036C12.9772 6.17343 13.1367 6.1085 13.3289 6.10556C13.521 6.10262 13.6834 6.16755 13.8162 6.30036C13.9491 6.43315 14.0155 6.59415 14.0155 6.78335C14.0155 6.97255 13.9491 7.13354 13.8162 7.26634L10.0826 11Z" fill="#1E1E1E"/>
</g>
</svg>
