<svg width="21" height="20" viewBox="0 0 21 20" fill="none" xmlns="http://www.w3.org/2000/svg">
<mask id="mask0_539_12259" style="mask-type:alpha" maskUnits="userSpaceOnUse" x="0" y="0" width="21" height="20">
<rect x="0.5" width="20" height="20" fill="#D9D9D9"/>
</mask>
<g mask="url(#mask0_539_12259)">
<path d="M5.75642 17.9164C5.34082 17.9164 4.98585 17.7692 4.69152 17.4749C4.39717 17.1806 4.25 16.8256 4.25 16.41V8.58955C4.25 8.17395 4.39717 7.81898 4.69152 7.52465C4.98585 7.2303 5.34082 7.08313 5.75642 7.08313H6.75V5.41646C6.75 4.37588 7.11485 3.49074 7.84454 2.76105C8.57425 2.03135 9.4594 1.6665 10.5 1.6665C11.5406 1.6665 12.4257 2.03135 13.1554 2.76105C13.8851 3.49074 14.25 4.37588 14.25 5.41646V7.08313H15.2435C15.6591 7.08313 16.0141 7.2303 16.3084 7.52465C16.6028 7.81898 16.75 8.17395 16.75 8.58955V16.41C16.75 16.8256 16.6028 17.1806 16.3084 17.4749C16.0141 17.7692 15.6591 17.9164 15.2435 17.9164H5.75642ZM5.75642 16.6664H15.2435C15.3183 16.6664 15.3798 16.6424 15.4279 16.5943C15.4759 16.5462 15.5 16.4848 15.5 16.41V8.58955C15.5 8.51475 15.4759 8.45332 15.4279 8.40523C15.3798 8.35715 15.3183 8.33311 15.2435 8.33311H5.75642C5.68163 8.33311 5.62019 8.35715 5.5721 8.40523C5.52402 8.45332 5.49998 8.51475 5.49998 8.58955V16.41C5.49998 16.4848 5.52402 16.5462 5.5721 16.5943C5.62019 16.6424 5.68163 16.6664 5.75642 16.6664ZM10.5 13.9581C10.9049 13.9581 11.2492 13.8163 11.5328 13.5326C11.8165 13.249 11.9583 12.9047 11.9583 12.4998C11.9583 12.0949 11.8165 11.7506 11.5328 11.4669C11.2492 11.1833 10.9049 11.0415 10.5 11.0415C10.0951 11.0415 9.75078 11.1833 9.46715 11.4669C9.18349 11.7506 9.04167 12.0949 9.04167 12.4998C9.04167 12.9047 9.18349 13.249 9.46715 13.5326C9.75078 13.8163 10.0951 13.9581 10.5 13.9581ZM7.99998 7.08313H13V5.41646C13 4.72202 12.7569 4.13174 12.2708 3.64563C11.7847 3.15952 11.1944 2.91646 10.5 2.91646C9.80553 2.91646 9.21526 3.15952 8.72915 3.64563C8.24303 4.13174 7.99998 4.72202 7.99998 5.41646V7.08313Z" fill="#808593"/>
</g>
</svg>
