<svg width="39" height="39" viewBox="0 0 39 39" fill="none" xmlns="http://www.w3.org/2000/svg">
<g id="manage_search">
<mask id="mask0_2196_35892" style="mask-type:alpha" maskUnits="userSpaceOnUse" x="0" y="0" width="39" height="39">
<rect id="Bounding box" width="39" height="39" fill="#D9D9D9"/>
</mask>
<g mask="url(#mask0_2196_35892)">
<path id="manage_search_2" d="M5.28125 30.0314C4.93594 30.0314 4.64648 29.9145 4.41289 29.6809C4.1793 29.4472 4.0625 29.1576 4.0625 28.8121C4.0625 28.4667 4.1793 28.1773 4.41289 27.944C4.64648 27.7106 4.93594 27.594 5.28125 27.594H18.7344C19.0797 27.594 19.3691 27.7108 19.6027 27.9445C19.8363 28.1782 19.9531 28.4678 19.9531 28.8132C19.9531 29.1587 19.8363 29.4481 19.6027 29.6814C19.3691 29.9147 19.0797 30.0314 18.7344 30.0314H5.28125ZM5.28125 22.0783C4.93594 22.0783 4.64648 21.9614 4.41289 21.7278C4.1793 21.4941 4.0625 21.2045 4.0625 20.859C4.0625 20.5136 4.1793 20.2242 4.41289 19.9908C4.64648 19.7575 4.93594 19.6408 5.28125 19.6408H10.5313C10.8766 19.6408 11.166 19.7577 11.3996 19.9914C11.6332 20.2251 11.75 20.5147 11.75 20.8601C11.75 21.2056 11.6332 21.495 11.3996 21.7283C11.166 21.9616 10.8766 22.0783 10.5313 22.0783H5.28125ZM5.28125 14.1252C4.93594 14.1252 4.64648 14.0083 4.41289 13.7746C4.1793 13.5409 4.0625 13.2514 4.0625 12.9059C4.0625 12.5604 4.1793 12.271 4.41289 12.0377C4.64648 11.8044 4.93594 11.6877 5.28125 11.6877H10.5313C10.8766 11.6877 11.166 11.8046 11.3996 12.0383C11.6332 12.272 11.75 12.5615 11.75 12.907C11.75 13.2525 11.6332 13.5418 11.3996 13.7752C11.166 14.0085 10.8766 14.1252 10.5313 14.1252H5.28125ZM22.6874 25.2033C20.6514 25.2033 18.9158 24.4918 17.4807 23.0689C16.0457 21.646 15.3281 19.9174 15.3281 17.883C15.3281 15.8487 16.046 14.12 17.4818 12.6971C18.9176 11.2742 20.654 10.5627 22.6911 10.5627C24.7283 10.5627 26.4635 11.2742 27.8968 12.6971C29.3301 14.12 30.0468 15.8461 30.0468 17.8752C30.0468 18.6294 29.9291 19.3715 29.6937 20.1017C29.4582 20.832 29.1103 21.5012 28.6499 22.1095L34.0812 27.4939C34.3166 27.7155 34.4343 27.9974 34.4343 28.3398C34.4343 28.6821 34.3166 28.971 34.0812 29.2064C33.8597 29.4314 33.5777 29.5439 33.2354 29.5439C32.893 29.5439 32.6041 29.4314 32.3687 29.2064L26.9374 23.822C26.3187 24.272 25.6442 24.6147 24.914 24.8502C24.1838 25.0856 23.4416 25.2033 22.6874 25.2033ZM22.6874 22.7658C24.0546 22.7658 25.2168 22.2919 26.1738 21.344C27.1308 20.3961 27.6093 19.2424 27.6093 17.883C27.6093 16.5236 27.1308 15.37 26.1738 14.4221C25.2168 13.4742 24.0546 13.0002 22.6874 13.0002C21.3203 13.0002 20.1582 13.4742 19.2011 14.4221C18.2441 15.37 17.7656 16.5236 17.7656 17.883C17.7656 19.2424 18.2441 20.3961 19.2011 21.344C20.1582 22.2919 21.3203 22.7658 22.6874 22.7658Z" fill="#1E1E1E"/>
</g>
</g>
</svg>
