<svg width="32" height="32" viewBox="0 0 32 32" fill="none" xmlns="http://www.w3.org/2000/svg">
<g id="&#235;&#169;&#148;&#235;&#137;&#180;">
<mask id="mask0_2227_6545" style="mask-type:alpha" maskUnits="userSpaceOnUse" x="0" y="0" width="32" height="32">
<rect id="Bounding box" width="32" height="32" fill="#D9D9D9"/>
</mask>
<g mask="url(#mask0_2227_6545)">
<path id="more_horiz" d="M8.30657 18C7.7566 18 7.28577 17.8041 6.89411 17.4125C6.50246 17.0208 6.30664 16.55 6.30664 16C6.30664 15.45 6.50246 14.9792 6.89411 14.5875C7.28577 14.1959 7.7566 14 8.30657 14C8.85657 14 9.3274 14.1959 9.71904 14.5875C10.1107 14.9792 10.3065 15.45 10.3065 16C10.3065 16.55 10.1107 17.0208 9.71904 17.4125C9.3274 17.8041 8.85657 18 8.30657 18ZM15.9989 18C15.4489 18 14.9781 17.8041 14.5864 17.4125C14.1947 17.0208 13.9989 16.55 13.9989 16C13.9989 15.45 14.1947 14.9792 14.5864 14.5875C14.9781 14.1959 15.4489 14 15.9989 14C16.5489 14 17.0197 14.1959 17.4113 14.5875C17.803 14.9792 17.9988 15.45 17.9988 16C17.9988 16.55 17.803 17.0208 17.4113 17.4125C17.0197 17.8041 16.5489 18 15.9989 18ZM23.6912 18C23.1412 18 22.6704 17.8041 22.2787 17.4125C21.887 17.0208 21.6912 16.55 21.6912 16C21.6912 15.45 21.887 14.9792 22.2787 14.5875C22.6704 14.1959 23.1412 14 23.6912 14C24.2412 14 24.712 14.1959 25.1036 14.5875C25.4953 14.9792 25.6911 15.45 25.6911 16C25.6911 16.55 25.4953 17.0208 25.1036 17.4125C24.712 17.8041 24.2412 18 23.6912 18Z" fill="#414244"/>
</g>
</g>
</svg>
