<svg width="47" height="47" viewBox="0 0 47 47" fill="none" xmlns="http://www.w3.org/2000/svg">
<mask id="mask0_771_3908" style="mask-type:alpha" maskUnits="userSpaceOnUse" x="7" y="7" width="32" height="32">
<rect x="7" y="7" width="32" height="32" fill="#D9D9D9"/>
</mask>
<g mask="url(#mask0_771_3908)">
<path d="M12.3332 33.6667C11.5998 33.6667 10.9721 33.4056 10.4498 32.8833C9.92762 32.3611 9.6665 31.7333 9.6665 31V15C9.6665 14.2667 9.92762 13.6389 10.4498 13.1167C10.9721 12.5945 11.5998 12.3333 12.3332 12.3333H33.6665C34.3998 12.3333 35.0276 12.5945 35.5498 13.1167C36.0721 13.6389 36.3332 14.2667 36.3332 15V31C36.3332 31.7333 36.0721 32.3611 35.5498 32.8833C35.0276 33.4056 34.3998 33.6667 33.6665 33.6667H12.3332ZM22.9998 24.3333L12.3332 17.6667V31H33.6665V17.6667L22.9998 24.3333ZM22.9998 21.6667L33.6665 15H12.3332L22.9998 21.6667ZM12.3332 17.6667V15V31V17.6667Z" fill="#50545E"/>
</g>
</svg>
