<svg width="47" height="47" viewBox="0 0 47 47" fill="none" xmlns="http://www.w3.org/2000/svg">
<mask id="mask0_24_1421" style="mask-type:alpha" maskUnits="userSpaceOnUse" x="7" y="7" width="32" height="32">
<rect x="7" y="7" width="32" height="32" fill="#D9D9D9"/>
</mask>
<g mask="url(#mask0_24_1421)">
<path d="M12.3337 33.6668C11.6003 33.6668 10.9725 33.4057 10.4503 32.8835C9.9281 32.3613 9.66699 31.7335 9.66699 31.0002V15.0002C9.66699 14.2668 9.9281 13.6391 10.4503 13.1168C10.9725 12.5946 11.6003 12.3335 12.3337 12.3335H33.667C34.4003 12.3335 35.0281 12.5946 35.5503 13.1168C36.0725 13.6391 36.3337 14.2668 36.3337 15.0002V31.0002C36.3337 31.7335 36.0725 32.3613 35.5503 32.8835C35.0281 33.4057 34.4003 33.6668 33.667 33.6668H12.3337ZM23.0003 24.3335L12.3337 17.6668V31.0002H33.667V17.6668L23.0003 24.3335ZM23.0003 21.6668L33.667 15.0002H12.3337L23.0003 21.6668ZM12.3337 17.6668V15.0002V31.0002V17.6668Z" fill="#50545E"/>
</g>
<circle cx="23.5" cy="23.5" r="23.5" fill="#F5F5F5" style="mix-blend-mode:multiply"/>
</svg>
