<svg width="47" height="47" viewBox="0 0 47 47" fill="none" xmlns="http://www.w3.org/2000/svg">
<mask id="mask0_24_1428" style="mask-type:alpha" maskUnits="userSpaceOnUse" x="7" y="7" width="32" height="32">
<rect x="7" y="7" width="32" height="32" fill="#D9D9D9"/>
</mask>
<g mask="url(#mask0_24_1428)">
<path d="M14.8003 29.7998C15.9337 28.9332 17.2003 28.2498 18.6003 27.7498C20.0003 27.2498 21.467 26.9998 23.0003 26.9998C24.5337 26.9998 26.0003 27.2498 27.4003 27.7498C28.8003 28.2498 30.067 28.9332 31.2003 29.7998C31.9781 28.8887 32.5837 27.8554 33.017 26.6998C33.4503 25.5443 33.667 24.3109 33.667 22.9998C33.667 20.0443 32.6281 17.5276 30.5503 15.4498C28.4725 13.3721 25.9559 12.3332 23.0003 12.3332C20.0448 12.3332 17.5281 13.3721 15.4503 15.4498C13.3725 17.5276 12.3337 20.0443 12.3337 22.9998C12.3337 24.3109 12.5503 25.5443 12.9837 26.6998C13.417 27.8554 14.0225 28.8887 14.8003 29.7998ZM23.0003 24.3332C21.6892 24.3332 20.5837 23.8832 19.6837 22.9832C18.7837 22.0832 18.3337 20.9776 18.3337 19.6665C18.3337 18.3554 18.7837 17.2498 19.6837 16.3498C20.5837 15.4498 21.6892 14.9998 23.0003 14.9998C24.3114 14.9998 25.417 15.4498 26.317 16.3498C27.217 17.2498 27.667 18.3554 27.667 19.6665C27.667 20.9776 27.217 22.0832 26.317 22.9832C25.417 23.8832 24.3114 24.3332 23.0003 24.3332ZM23.0003 36.3332C21.1559 36.3332 19.4225 35.9832 17.8003 35.2832C16.1781 34.5832 14.767 33.6332 13.567 32.4332C12.367 31.2332 11.417 29.8221 10.717 28.1998C10.017 26.5776 9.66699 24.8443 9.66699 22.9998C9.66699 21.1554 10.017 19.4221 10.717 17.7998C11.417 16.1776 12.367 14.7665 13.567 13.5665C14.767 12.3665 16.1781 11.4165 17.8003 10.7165C19.4225 10.0165 21.1559 9.6665 23.0003 9.6665C24.8448 9.6665 26.5781 10.0165 28.2003 10.7165C29.8225 11.4165 31.2337 12.3665 32.4337 13.5665C33.6337 14.7665 34.5837 16.1776 35.2837 17.7998C35.9837 19.4221 36.3337 21.1554 36.3337 22.9998C36.3337 24.8443 35.9837 26.5776 35.2837 28.1998C34.5837 29.8221 33.6337 31.2332 32.4337 32.4332C31.2337 33.6332 29.8225 34.5832 28.2003 35.2832C26.5781 35.9832 24.8448 36.3332 23.0003 36.3332Z" fill="#50545E"/>
</g>
</svg>
