<svg width="22" height="22" viewBox="0 0 22 22" fill="none" xmlns="http://www.w3.org/2000/svg">
<mask id="mask0_676_4962" style="mask-type:alpha" maskUnits="userSpaceOnUse" x="0" y="0" width="22" height="22">
<rect width="22" height="22" fill="#D9D9D9"/>
</mask>
<g mask="url(#mask0_676_4962)">
<path d="M11.001 10.7179C10.1187 10.7179 9.36339 10.4038 8.73509 9.7755C8.10679 9.14721 7.79264 8.39192 7.79264 7.50964C7.79264 6.62735 8.10679 5.87206 8.73509 5.24378C9.36339 4.61548 10.1187 4.30133 11.001 4.30133C11.8832 4.30133 12.6385 4.61548 13.2668 5.24378C13.8951 5.87206 14.2093 6.62735 14.2093 7.50964C14.2093 8.39192 13.8951 9.14721 13.2668 9.7755C12.6385 10.4038 11.8832 10.7179 11.001 10.7179ZM4.12598 16.3061V15.6609C4.12598 15.212 4.24791 14.7962 4.49177 14.4137C4.73562 14.0312 5.06144 13.7371 5.46924 13.5314C6.37533 13.0872 7.28936 12.754 8.21131 12.5319C9.13326 12.3098 10.0631 12.1988 11.001 12.1988C11.9388 12.1988 12.8686 12.3098 13.7906 12.5319C14.7126 12.754 15.6266 13.0872 16.5327 13.5314C16.9405 13.7371 17.2663 14.0312 17.5101 14.4137C17.754 14.7962 17.8759 15.212 17.8759 15.6609V16.3061C17.8759 16.6927 17.7405 17.0215 17.4696 17.2924C17.1987 17.5632 16.87 17.6987 16.4833 17.6987H5.51858C5.13194 17.6987 4.80319 17.5632 4.53231 17.2924C4.26142 17.0215 4.12598 16.6927 4.12598 16.3061ZM5.50095 16.3237H16.501V15.6609C16.501 15.4752 16.4472 15.3033 16.3396 15.1453C16.2321 14.9872 16.0861 14.8582 15.9016 14.7583C15.1119 14.3693 14.3066 14.0746 13.4858 13.8743C12.6649 13.6739 11.8367 13.5737 11.001 13.5737C10.1652 13.5737 9.33696 13.6739 8.51615 13.8743C7.69533 14.0746 6.89006 14.3693 6.10032 14.7583C5.91581 14.8582 5.76979 14.9872 5.66226 15.1453C5.55472 15.3033 5.50095 15.4752 5.50095 15.6609V16.3237ZM11.001 9.34297C11.5051 9.34297 11.9367 9.16346 12.2957 8.80443C12.6548 8.44541 12.8343 8.01381 12.8343 7.50964C12.8343 7.00547 12.6548 6.57388 12.2957 6.21485C11.9367 5.85582 11.5051 5.67631 11.001 5.67631C10.4968 5.67631 10.0652 5.85582 9.70616 6.21485C9.34713 6.57388 9.16762 7.00547 9.16762 7.50964C9.16762 8.01381 9.34713 8.44541 9.70616 8.80443C10.0652 9.16346 10.4968 9.34297 11.001 9.34297Z" fill="#808593"/>
</g>
</svg>
