<svg width="22" height="22" viewBox="0 0 22 22" fill="none" xmlns="http://www.w3.org/2000/svg">
<mask id="mask0_549_8132" style="mask-type:alpha" maskUnits="userSpaceOnUse" x="0" y="0" width="22" height="22">
<rect width="22" height="22" fill="#D9D9D9"/>
</mask>
<g mask="url(#mask0_549_8132)">
<path d="M4.86507 18.7918C4.40203 18.7918 4.01009 18.6314 3.68926 18.3105C3.36842 17.9897 3.20801 17.5978 3.20801 17.1347V4.86556C3.20801 4.40252 3.36842 4.01058 3.68926 3.68975C4.01009 3.36891 4.40203 3.2085 4.86507 3.2085H17.1342C17.5973 3.2085 17.9892 3.36891 18.31 3.68975C18.6309 4.01058 18.7913 4.40252 18.7913 4.86556V17.1347C18.7913 17.5978 18.6309 17.9897 18.31 18.3105C17.9892 18.6314 17.5973 18.7918 17.1342 18.7918H4.86507ZM4.86507 17.4168H17.1342C17.2048 17.4168 17.2694 17.3874 17.3282 17.3287C17.3869 17.2699 17.4163 17.2052 17.4163 17.1347V4.86556C17.4163 4.79503 17.3869 4.73039 17.3282 4.67161C17.2694 4.61285 17.2048 4.58347 17.1342 4.58347H4.86507C4.79454 4.58347 4.7299 4.61285 4.67112 4.67161C4.61236 4.73039 4.58298 4.79503 4.58298 4.86556V17.1347C4.58298 17.2052 4.61236 17.2699 4.67112 17.3287C4.7299 17.3874 4.79454 17.4168 4.86507 17.4168ZM6.1872 15.3543H15.8826L12.8682 11.3351L10.2945 14.6844L8.46119 12.3399L6.1872 15.3543Z" fill="#808593"/>
</g>
</svg>
