<svg width="258" height="89" viewBox="0 0 258 89" fill="none" xmlns="http://www.w3.org/2000/svg">
<path d="M0 16.1C0 10.4051 0 7.55764 1.12587 5.39026C2.07462 3.56382 3.56382 2.07462 5.39026 1.12587C7.55764 0 10.4051 0 16.1 0H215.209C217.948 0 219.318 0 220.59 0.340912C221.671 0.630539 222.695 1.09945 223.62 1.72811C224.71 2.46808 225.605 3.50484 227.395 5.57837L251.916 33.9784C255.172 37.7497 256.8 39.6354 257.405 41.7579C257.916 43.5503 257.916 45.4497 257.405 47.2421C256.8 49.3646 255.172 51.2503 251.916 55.0216L227.395 83.4216C225.605 85.4952 224.71 86.5319 223.62 87.2719C222.695 87.9006 221.671 88.3695 220.59 88.6591C219.318 89 217.948 89 215.209 89H16.1C10.4051 89 7.55764 89 5.39026 87.8741C3.56382 86.9254 2.07462 85.4362 1.12587 83.6097C0 81.4424 0 78.5949 0 72.9V16.1Z" fill="#FFA77B" fill-opacity="0.25"/>
<path d="M0.5 16.1C0.5 13.2442 0.500402 11.1328 0.639018 9.46369C0.777137 7.80052 1.04989 6.62117 1.56957 5.62074C2.47089 3.88563 3.88563 2.47089 5.62074 1.56957C6.62117 1.04989 7.80052 0.777137 9.46369 0.639018C11.1328 0.500402 13.2442 0.5 16.1 0.5H215.209C217.975 0.5 219.267 0.503985 220.46 0.823866C221.487 1.09901 222.46 1.54448 223.339 2.1417C224.361 2.83603 225.209 3.81126 227.017 5.90513L251.537 34.3051C253.17 36.1966 254.376 37.594 255.252 38.7829C256.124 39.9667 256.645 40.9138 256.924 41.895C257.41 43.5977 257.41 45.4023 256.924 47.105C256.645 48.0862 256.124 49.0333 255.252 50.2171C254.376 51.406 253.17 52.8033 251.537 54.6949L227.017 83.0949C225.209 85.1887 224.361 86.164 223.339 86.8583C222.46 87.4555 221.487 87.901 220.46 88.1761C219.267 88.496 217.975 88.5 215.209 88.5H16.1C13.2442 88.5 11.1329 88.4996 9.46369 88.361C7.80052 88.2229 6.62117 87.9501 5.62074 87.4304L5.39026 87.8741L5.62074 87.4304C3.88563 86.5291 2.47089 85.1144 1.56957 83.3793C1.04989 82.3788 0.777137 81.1995 0.639018 79.5363C0.500402 77.8671 0.5 75.7558 0.5 72.9V16.1Z" stroke="#FFA77B" stroke-opacity="0.35"/>
</svg>
