<svg width="258" height="89" viewBox="0 0 258 89" fill="none" xmlns="http://www.w3.org/2000/svg">
<path d="M0 16.1C0 10.4051 0 7.55764 1.12587 5.39026C2.07462 3.56382 3.56382 2.07462 5.39026 1.12587C7.55764 0 10.4051 0 16.1 0H215.209C217.948 0 219.318 0 220.59 0.340912C221.671 0.630539 222.695 1.09945 223.62 1.72811C224.71 2.46808 225.605 3.50484 227.395 5.57837L251.916 33.9784C255.172 37.7497 256.8 39.6354 257.405 41.7579C257.916 43.5503 257.916 45.4497 257.405 47.2421C256.8 49.3646 255.172 51.2503 251.916 55.0216L227.395 83.4216C225.605 85.4952 224.71 86.5319 223.62 87.2719C222.695 87.9006 221.671 88.3695 220.59 88.6591C219.318 89 217.948 89 215.209 89H16.1C10.4051 89 7.55764 89 5.39026 87.8741C3.56382 86.9254 2.07462 85.4362 1.12587 83.6097C0 81.4424 0 78.5949 0 72.9V16.1Z" fill="#F5F5F5"/>
</svg>
