<svg width="47" height="47" viewBox="0 0 47 47" fill="none" xmlns="http://www.w3.org/2000/svg">
<mask id="mask0_24_1396" style="mask-type:alpha" maskUnits="userSpaceOnUse" x="8" y="8" width="30" height="30">
<rect x="8" y="8" width="30" height="30" fill="#D9D9D9"/>
</mask>
<g mask="url(#mask0_24_1396)">
<path d="M19.875 28C17.6042 28 15.6823 27.2135 14.1094 25.6406C12.5365 24.0677 11.75 22.1458 11.75 19.875C11.75 17.6042 12.5365 15.6823 14.1094 14.1094C15.6823 12.5365 17.6042 11.75 19.875 11.75C22.1458 11.75 24.0677 12.5365 25.6406 14.1094C27.2135 15.6823 28 17.6042 28 19.875C28 20.7917 27.8542 21.6562 27.5625 22.4688C27.2708 23.2812 26.875 24 26.375 24.625L33.375 31.625C33.6042 31.8542 33.7188 32.1458 33.7188 32.5C33.7188 32.8542 33.6042 33.1458 33.375 33.375C33.1458 33.6042 32.8542 33.7188 32.5 33.7188C32.1458 33.7188 31.8542 33.6042 31.625 33.375L24.625 26.375C24 26.875 23.2812 27.2708 22.4688 27.5625C21.6562 27.8542 20.7917 28 19.875 28ZM19.875 25.5C21.4375 25.5 22.7656 24.9531 23.8594 23.8594C24.9531 22.7656 25.5 21.4375 25.5 19.875C25.5 18.3125 24.9531 16.9844 23.8594 15.8906C22.7656 14.7969 21.4375 14.25 19.875 14.25C18.3125 14.25 16.9844 14.7969 15.8906 15.8906C14.7969 16.9844 14.25 18.3125 14.25 19.875C14.25 21.4375 14.7969 22.7656 15.8906 23.8594C16.9844 24.9531 18.3125 25.5 19.875 25.5Z" fill="#50545E"/>
</g>
<circle cx="23.5" cy="23.5" r="23.5" fill="#F5F5F5" style="mix-blend-mode:multiply"/>
</svg>
