<svg width="21" height="19" viewBox="0 0 21 19" fill="none" xmlns="http://www.w3.org/2000/svg">
<path d="M18.6923 6.50014C19.1679 6.50014 19.5881 6.68251 19.9528 7.04726C20.3176 7.41199 20.5 7.83219 20.5 8.30784V9.92319C20.5 10.0281 20.4865 10.1406 20.4596 10.2606C20.4326 10.3805 20.4025 10.4924 20.3692 10.5963L17.5034 17.3589C17.3601 17.6787 17.1198 17.9488 16.7827 18.1693C16.4455 18.3898 16.0937 18.5001 15.7272 18.5001H5.21153V6.50014L11.0288 0.732861C11.2275 0.534144 11.4577 0.415552 11.7192 0.377085C11.9807 0.338619 12.2314 0.383494 12.4711 0.511711C12.7108 0.639911 12.8865 0.821953 12.998 1.05784C13.1096 1.29374 13.1333 1.53796 13.0692 1.79051L11.9923 6.50014H18.6923ZM6.7115 7.13859V17.0001H15.7307C15.8012 17.0001 15.8734 16.9809 15.9471 16.9424C16.0208 16.9039 16.0769 16.8398 16.1154 16.7501L19 10.0001V8.30784C19 8.21809 18.9711 8.14436 18.9134 8.08666C18.8557 8.02896 18.782 8.00011 18.6923 8.00011H10.0961L11.35 2.51934L6.7115 7.13859ZM2.3077 18.5001C1.81058 18.5001 1.38503 18.3231 1.03102 17.9691C0.677008 17.6151 0.5 17.1895 0.5 16.6924V8.30784C0.5 7.81072 0.677008 7.38516 1.03102 7.03116C1.38503 6.67714 1.81058 6.50014 2.3077 6.50014H5.21153V8.00011H2.3077C2.21795 8.00011 2.14423 8.02896 2.08653 8.08666C2.02883 8.14436 1.99998 8.21809 1.99998 8.30784V16.6924C1.99998 16.7821 2.02883 16.8559 2.08653 16.9136C2.14423 16.9713 2.21795 17.0001 2.3077 17.0001H5.21153V18.5001H2.3077Z" fill="#808593"/>
</svg>
