<svg width="16" height="17" viewBox="0 0 16 17" fill="none" xmlns="http://www.w3.org/2000/svg">
<mask id="mask0_1175_1160" style="mask-type:alpha" maskUnits="userSpaceOnUse" x="0" y="0" width="16" height="17">
<rect y="0.5" width="16" height="16" fill="#D9D9D9"/>
</mask>
<g mask="url(#mask0_1175_1160)">
<path d="M13.7942 6.63715C14.1113 6.63715 14.3914 6.76047 14.6346 7.00711C14.8777 7.25374 14.9993 7.53787 14.9993 7.8595V8.95178C14.9993 9.02275 14.9903 9.09879 14.9724 9.17991C14.9544 9.26102 14.9344 9.33668 14.9121 9.40691L13.0016 13.9797C12.9061 14.196 12.7459 14.3786 12.5211 14.5277C12.2963 14.6768 12.0618 14.7514 11.8175 14.7514H4.80703V6.63715L8.68523 2.73737C8.81771 2.603 8.97113 2.52281 9.14548 2.4968C9.31984 2.47079 9.48693 2.50113 9.64675 2.58783C9.80657 2.67452 9.92366 2.79761 9.99802 2.95711C10.0724 3.11663 10.0882 3.28177 10.0455 3.45254L9.32752 6.63715H13.7942ZM5.80702 7.06886V13.7371H11.8198C11.8668 13.7371 11.9149 13.7241 11.9641 13.6981C12.0132 13.6721 12.0506 13.6288 12.0763 13.5681L13.9993 9.0038V7.8595C13.9993 7.79881 13.9801 7.74895 13.9416 7.70994C13.9032 7.67092 13.854 7.65141 13.7942 7.65141H8.06343L8.89933 3.94537L5.80702 7.06886ZM2.87115 14.7514C2.53974 14.7514 2.25603 14.6317 2.02003 14.3923C1.78402 14.153 1.66602 13.8652 1.66602 13.529V7.8595C1.66602 7.52335 1.78402 7.23559 2.02003 6.99622C2.25603 6.75684 2.53974 6.63715 2.87115 6.63715H4.80703V7.65141H2.87115C2.81132 7.65141 2.76217 7.67092 2.7237 7.70994C2.68523 7.74895 2.666 7.79881 2.666 7.8595V13.529C2.666 13.5897 2.68523 13.6396 2.7237 13.6786C2.76217 13.7176 2.81132 13.7371 2.87115 13.7371H4.80703V14.7514H2.87115Z" fill="#808593"/>
</g>
</svg>
