<svg width="21" height="20" viewBox="0 0 21 20" fill="none" xmlns="http://www.w3.org/2000/svg">
<mask id="mask0_1873_7126" style="mask-type:alpha" maskUnits="userSpaceOnUse" x="0" y="0" width="21" height="20">
<rect x="0.5" width="20" height="20" fill="#D9D9D9"/>
</mask>
<g mask="url(#mask0_1873_7126)">
<path d="M5.75642 16.6667H15.2435C15.3183 16.6667 15.3798 16.6426 15.4279 16.5946C15.4759 16.5465 15.5 16.485 15.5 16.4102V8.58979C15.5 8.515 15.4759 8.45356 15.4279 8.40548C15.3798 8.35739 15.3183 8.33335 15.2435 8.33335H5.75642C5.68163 8.33335 5.62019 8.35739 5.5721 8.40548C5.52402 8.45356 5.49998 8.515 5.49998 8.58979V16.4102C5.49998 16.485 5.52402 16.5465 5.5721 16.5946C5.62019 16.6426 5.68163 16.6667 5.75642 16.6667ZM10.5 13.9583C10.9049 13.9583 11.2492 13.8165 11.5328 13.5329C11.8165 13.2492 11.9583 12.9049 11.9583 12.5C11.9583 12.0951 11.8165 11.7508 11.5328 11.4672C11.2492 11.1835 10.9049 11.0417 10.5 11.0417C10.0951 11.0417 9.75079 11.1835 9.46715 11.4672C9.18349 11.7508 9.04167 12.0951 9.04167 12.5C9.04167 12.9049 9.18349 13.2492 9.46715 13.5329C9.75079 13.8165 10.0951 13.9583 10.5 13.9583ZM5.75642 17.9167C5.34082 17.9167 4.98585 17.7695 4.69152 17.4751C4.39717 17.1808 4.25 16.8258 4.25 16.4102V8.58979C4.25 8.17419 4.39717 7.81923 4.69152 7.52489C4.98585 7.23055 5.34082 7.08337 5.75642 7.08337H11.75V5.41671C11.75 4.37612 12.1148 3.49098 12.8445 2.76129C13.5743 2.0316 14.4594 1.66675 15.5 1.66675C16.422 1.66675 17.2203 1.95467 17.895 2.53052C18.5697 3.10638 18.993 3.82166 19.165 4.67635C19.2131 4.8537 19.1773 5.02143 19.0576 5.17954C18.938 5.33765 18.7938 5.41671 18.625 5.41671C18.4476 5.41671 18.3013 5.37611 18.1859 5.29492C18.0705 5.21372 17.9888 5.08873 17.9407 4.91994C17.82 4.35476 17.5355 3.87959 17.0873 3.49444C16.6391 3.10928 16.11 2.91671 15.5 2.91671C14.8055 2.91671 14.2153 3.15976 13.7291 3.64587C13.243 4.13198 13 4.72226 13 5.41671V7.08337H15.2435C15.6591 7.08337 16.0141 7.23055 16.3084 7.52489C16.6028 7.81923 16.75 8.17419 16.75 8.58979V16.4102C16.75 16.8258 16.6028 17.1808 16.3084 17.4751C16.0141 17.7695 15.6591 17.9167 15.2435 17.9167H5.75642Z" fill="#808593"/>
</g>
</svg>
