<svg width="529" height="295" viewBox="0 0 529 295" fill="none" xmlns="http://www.w3.org/2000/svg">
<path d="M515.524 114.326L509.916 128.688L513.892 130.244L519.5 115.882L515.524 114.326Z" fill="#EEFF8A"/>
<path d="M165.2 79.1087L162.021 81.9595L172.298 93.4459L175.478 90.5951L165.2 79.1087Z" fill="#EEFF8A"/>
<path d="M212.322 130.522L199.992 139.766L202.552 143.187L214.881 133.942L212.322 130.522Z" fill="#FF743D"/>
<path d="M354.924 24.4389L351.999 27.5508L363.218 38.1182L366.144 35.0063L354.924 24.4389Z" fill="#FF743D"/>
<path d="M273.347 27.8756L265.669 41.2441L269.37 43.3738L277.048 30.0052L273.347 27.8756Z" fill="#FF743D"/>
<path d="M384.841 142.2L381.23 144.48L389.452 157.521L393.062 155.24L384.841 142.2Z" fill="#00CCFF"/>
<path d="M217.44 205.699L213.621 207.609L220.506 221.403L224.325 219.493L217.44 205.699Z" fill="#FF743D"/>
<path d="M161.567 169.405L157.144 184.175L161.232 185.402L165.656 170.631L161.567 169.405Z" fill="#FF743D"/>
<path d="M428.797 215.431L416.003 224.019L418.381 227.568L431.175 218.98L428.797 215.431Z" fill="#FF743D"/>
<path d="M430.717 -2.72575e-05L423.039 13.3682L426.74 15.4978L434.417 2.12956L430.717 -2.72575e-05Z" fill="#FFB7F5"/>
<path d="M3.97596 109.367L0 110.923L5.6081 125.284L9.58407 123.729L3.97596 109.367Z" fill="#EEFF8A"/>
<path d="M416.708 91.625L414.148 95.0454L426.478 104.29L429.038 100.869L416.708 91.625Z" fill="#FF743D"/>
<path d="M70.3735 28.621L59.1543 39.1885L62.0798 42.3004L73.2989 31.7329L70.3735 28.621Z" fill="#FF743D"/>
<path d="M194.638 16.0368L190.938 18.1665L198.615 31.535L202.316 29.4054L194.638 16.0368Z" fill="#00CCFF"/>
<path d="M43.686 183.887L35.4648 196.927L39.075 199.208L47.2962 186.167L43.686 183.887Z" fill="#FF743D"/>
<path d="M7.27328 219.607L4.89551 223.158L17.6969 231.746L20.0747 228.196L7.27328 219.607Z" fill="#FFB7F5"/>
<path d="M501.159 49.3182L497.458 51.4478L505.135 64.816L508.836 62.6864L501.159 49.3182Z" fill="#FF743D"/>
<path d="M340.77 85.7504L330.492 97.2368L333.672 100.088L343.95 88.6012L340.77 85.7504Z" fill="#EEFF8A"/>
<path d="M306.419 178.927L302.33 180.154L306.754 194.924L310.842 193.697L306.419 178.927Z" fill="#FF743D"/>
<path d="M307.794 187.357L293.244 176.287C292.924 176.043 292.557 175.87 292.167 175.776C291.776 175.683 291.371 175.672 290.976 175.744C290.581 175.816 290.205 175.969 289.872 176.195C289.54 176.42 289.258 176.712 289.044 177.053C288.669 177.693 288.546 178.45 288.697 179.177C288.849 179.904 289.264 180.549 289.863 180.986L292.983 183.36L279.75 180.403C278.284 180.048 276.259 180.552 275.97 182.224C275.817 182.86 275.884 183.529 276.159 184.123C276.435 184.716 276.903 185.198 277.488 185.491C277.481 185.504 277.476 185.517 277.472 185.531C277.471 185.542 277.471 185.553 277.472 185.564L275.212 185.018C274.793 184.917 274.357 184.911 273.936 185C273.514 185.089 273.118 185.271 272.776 185.532C272.434 185.794 272.154 186.129 271.957 186.513C271.761 186.896 271.652 187.319 271.64 187.75C271.633 188.429 271.86 189.089 272.282 189.621C272.704 190.153 273.296 190.523 273.958 190.671L274.918 190.903C274.925 190.934 274.936 190.963 274.952 190.991C274.266 190.985 273.6 191.223 273.073 191.663C272.547 192.104 272.194 192.717 272.077 193.394C271.972 194.139 272.15 194.895 272.578 195.514C273.005 196.132 273.649 196.567 274.383 196.73L276.772 197.308C276.733 197.324 276.698 197.349 276.67 197.381C276.642 197.413 276.622 197.451 276.612 197.492C276.602 197.542 276.607 197.593 276.626 197.64C276.014 197.804 275.472 198.166 275.084 198.668C274.697 199.171 274.485 199.787 274.481 200.422C274.491 201.089 274.726 201.733 275.147 202.25C275.568 202.767 276.151 203.127 276.801 203.271L296.958 208.145C299.778 208.827 302.737 208.65 305.456 207.637C308.175 206.625 310.53 204.823 312.219 202.462C313.676 200.427 314.282 197.903 313.909 195.427C313.536 192.951 312.213 190.719 310.222 189.204L307.794 187.357Z" fill="#FFC6A9"/>
<g opacity="0.2">
<path d="M290.571 188.484C290.554 188.552 290.512 188.61 290.452 188.647C290.393 188.683 290.322 188.695 290.254 188.68L277.671 185.849C277.637 185.841 277.605 185.827 277.576 185.807C277.547 185.787 277.523 185.761 277.504 185.731C277.485 185.702 277.473 185.669 277.467 185.634C277.461 185.599 277.462 185.564 277.469 185.53C277.477 185.496 277.491 185.463 277.512 185.434C277.532 185.406 277.558 185.381 277.587 185.363C277.617 185.344 277.65 185.331 277.684 185.325C277.719 185.319 277.754 185.32 277.789 185.328L290.371 188.159C290.405 188.166 290.437 188.181 290.466 188.201C290.495 188.221 290.519 188.247 290.538 188.277C290.557 188.307 290.569 188.34 290.575 188.375C290.581 188.409 290.58 188.445 290.572 188.479L290.571 188.484Z" fill="#414244"/>
</g>
<g opacity="0.2">
<path d="M289.48 194.072C289.463 194.14 289.42 194.199 289.36 194.235C289.3 194.272 289.228 194.284 289.16 194.268L275.118 191.111C275.083 191.103 275.051 191.089 275.022 191.069C274.993 191.048 274.969 191.022 274.95 190.993C274.931 190.963 274.919 190.93 274.913 190.895C274.907 190.86 274.908 190.825 274.916 190.79C274.934 190.722 274.977 190.664 275.036 190.626C275.096 190.589 275.167 190.575 275.236 190.589L289.278 193.745C289.312 193.753 289.345 193.767 289.374 193.788C289.402 193.808 289.427 193.834 289.446 193.863C289.464 193.893 289.477 193.926 289.483 193.961C289.489 193.996 289.488 194.031 289.48 194.066V194.072Z" fill="#414244"/>
</g>
<g opacity="0.2">
<path d="M288.33 200.132C288.313 200.2 288.27 200.258 288.211 200.295C288.151 200.331 288.08 200.343 288.012 200.328L276.811 197.81C276.742 197.794 276.682 197.752 276.644 197.692C276.606 197.632 276.594 197.56 276.609 197.491C276.625 197.422 276.667 197.362 276.727 197.324C276.786 197.286 276.859 197.273 276.928 197.289L288.129 199.807C288.163 199.814 288.196 199.829 288.225 199.849C288.253 199.869 288.278 199.895 288.297 199.925C288.315 199.954 288.328 199.988 288.334 200.022C288.34 200.057 288.339 200.093 288.331 200.127L288.33 200.132Z" fill="#414244"/>
</g>
<path d="M238.718 111.209L246.841 94.8216C247.02 94.4615 247.271 94.1426 247.58 93.8851C247.888 93.6277 248.247 93.4373 248.632 93.3262C249.018 93.215 249.423 93.1855 249.821 93.2396C250.219 93.2936 250.601 93.4301 250.944 93.6401C251.564 94.0474 252.011 94.6707 252.199 95.3892C252.386 96.1078 252.3 96.8704 251.958 97.5291L250.215 101.043L260.759 92.5115C261.915 91.5421 263.953 91.0929 264.953 92.4624C265.373 92.9642 265.61 93.5935 265.626 94.2476C265.642 94.9017 265.436 95.542 265.042 96.064C265.054 96.0727 265.065 96.0825 265.075 96.0934C265.081 96.1028 265.086 96.1126 265.09 96.1228L266.873 94.6272C267.203 94.3506 267.591 94.1512 268.008 94.0436C268.425 93.9359 268.861 93.9228 269.284 94.0052C269.707 94.0875 270.106 94.2632 270.452 94.5195C270.798 94.7758 271.083 95.1062 271.286 95.4866C271.592 96.0922 271.682 96.7848 271.54 97.4487C271.398 98.1126 271.033 98.7076 270.505 99.1342L269.746 99.7703C269.755 99.8007 269.757 99.8324 269.754 99.8638C270.366 99.5531 271.069 99.4705 271.736 99.6307C272.403 99.7909 272.992 100.183 273.396 100.738C273.821 101.358 273.997 102.116 273.888 102.86C273.779 103.604 273.394 104.28 272.81 104.752L270.925 106.332C270.968 106.328 271.01 106.334 271.05 106.351C271.089 106.367 271.124 106.392 271.152 106.424C271.182 106.465 271.201 106.513 271.205 106.564C271.827 106.439 272.473 106.521 273.043 106.799C273.613 107.077 274.076 107.535 274.361 108.103C274.648 108.705 274.724 109.386 274.576 110.036C274.428 110.687 274.066 111.268 273.546 111.686L257.65 125.015C255.426 126.879 252.697 128.037 249.812 128.339C246.926 128.64 244.017 128.073 241.456 126.708C239.248 125.532 237.586 123.541 236.821 121.157C236.057 118.774 236.251 116.185 237.362 113.943L238.718 111.209Z" fill="#FBCFB9"/>
<g opacity="0.2">
<path d="M254.646 104.561C254.691 104.615 254.755 104.649 254.825 104.656C254.895 104.662 254.965 104.641 255.019 104.596L265.037 96.4678C265.092 96.4232 265.127 96.3585 265.135 96.2881C265.142 96.2176 265.121 96.1471 265.076 96.0921C265.032 96.037 264.967 96.002 264.897 95.9946C264.826 95.9872 264.756 96.0082 264.701 96.0528L254.683 104.181C254.629 104.226 254.594 104.29 254.586 104.36C254.579 104.43 254.6 104.5 254.644 104.555L254.646 104.561Z" fill="#414244"/>
</g>
<g opacity="0.2">
<path d="M258.107 109.084C258.152 109.138 258.217 109.172 258.287 109.178C258.356 109.184 258.426 109.163 258.48 109.118L269.661 100.047C269.715 100.003 269.75 99.9383 269.757 99.8683C269.764 99.7983 269.744 99.7282 269.7 99.6734C269.654 99.6208 269.59 99.5875 269.521 99.5801C269.451 99.5728 269.382 99.592 269.326 99.6338L258.142 108.703C258.088 108.748 258.053 108.812 258.045 108.882C258.038 108.952 258.059 109.022 258.103 109.077L258.107 109.084Z" fill="#414244"/>
</g>
<g opacity="0.2">
<path d="M261.825 113.998C261.87 114.051 261.934 114.085 262.004 114.092C262.074 114.098 262.144 114.077 262.198 114.032L271.116 106.796C271.171 106.752 271.206 106.687 271.214 106.617C271.221 106.546 271.2 106.476 271.156 106.421C271.111 106.366 271.046 106.331 270.976 106.323C270.906 106.316 270.835 106.337 270.78 106.381L261.86 113.617C261.805 113.662 261.771 113.726 261.763 113.796C261.756 113.866 261.776 113.936 261.82 113.991L261.825 113.998Z" fill="#414244"/>
</g>
<path d="M56.4031 97.1589C56.4031 97.1589 55.2575 114.366 51.3904 120.607C40.2561 138.579 37.0304 158.797 48.1802 169.36C59.33 179.924 130.447 180.07 135.835 155.775C140.371 135.321 130.637 133.121 128.268 116.25C127.197 108.615 124.249 92.6055 124.249 92.6055" fill="#414244"/>
<path d="M117.429 152.214C117.306 152.198 115.944 174.824 89.6845 172.851C71.5054 171.487 65.0236 152.18 64.6074 152.18C66.5674 151.763 69.8678 151.157 70.7381 150.692C73.6009 149.152 77.1414 147.55 78.0657 141.986C78.5993 138.781 77.6948 122.371 77.9728 119.125L105.878 125.361C105.487 132.215 102.759 148.102 112.324 150.914C113.915 151.38 115.629 151.808 117.429 152.214Z" fill="#FBCFB9"/>
<path opacity="0.5" d="M106.269 144.42C105.832 143.01 105.55 141.556 105.43 140.085C105.123 136.728 105.184 133.347 105.612 130.002C99.9409 129.236 94.598 126.893 90.1908 123.239C89.6726 125.154 86.8226 133.524 87.6118 135.344C89.1022 138.786 96.1101 144.42 106.269 144.42Z" fill="#414244"/>
<path d="M102.659 137.372C91.6572 138.441 77.4225 134.033 74.4738 119.367L71.8132 106.135C68.8645 91.47 74.1691 78.0314 87.9635 75.2524C101.758 72.4749 114.459 82.2841 117.408 96.9496L118.586 102.808C119.718 108.435 122.288 135.471 102.659 137.372Z" fill="#FBCFB9"/>
<path opacity="0.1" d="M95.6664 118.154C97.4769 117.938 98.8162 116.685 98.6578 115.356C98.4993 114.026 96.9032 113.124 95.0927 113.34C93.2822 113.557 91.9429 114.809 92.1013 116.139C92.2598 117.468 93.8559 118.37 95.6664 118.154Z" fill="#414244"/>
<path opacity="0.1" d="M114.798 112.841C114.958 114.168 116.556 115.069 118.366 114.855C118.679 114.818 118.987 114.748 119.286 114.647C119.37 113.064 119.375 111.542 119.329 110.132C118.826 110.006 118.304 109.976 117.79 110.042C115.98 110.256 114.641 111.508 114.798 112.841Z" fill="#414244"/>
<path opacity="0.5" d="M106.799 116.944C106.808 116.943 106.817 116.941 106.826 116.939C107.385 116.823 107.937 116.675 108.48 116.498C109.29 116.226 110.348 115.781 110.203 115.048C110.035 114.212 105.934 105.657 105.468 104.685C105.449 104.642 105.422 104.602 105.387 104.569C105.352 104.536 105.311 104.511 105.267 104.494C105.222 104.477 105.174 104.47 105.126 104.472C105.079 104.474 105.032 104.486 104.989 104.507C104.946 104.527 104.907 104.557 104.876 104.592C104.844 104.628 104.82 104.67 104.805 104.716C104.79 104.761 104.784 104.809 104.788 104.857C104.792 104.904 104.806 104.951 104.828 104.993C106.577 108.636 109.393 114.627 109.506 115.189C109.418 115.451 108.074 115.964 106.687 116.243C106.641 116.251 106.597 116.267 106.557 116.292C106.518 116.316 106.483 116.348 106.456 116.386C106.429 116.424 106.409 116.467 106.398 116.512C106.388 116.558 106.386 116.605 106.393 116.651C106.401 116.697 106.417 116.741 106.442 116.781C106.466 116.82 106.498 116.855 106.536 116.882C106.574 116.909 106.617 116.929 106.662 116.94C106.707 116.95 106.754 116.952 106.8 116.945L106.799 116.944Z" fill="#414244"/>
<path d="M60.807 110.885L73.174 108.467C82.5159 104.557 85.1664 88.2601 85.1664 88.2601C85.1664 88.2601 96.6956 99.2508 124.25 92.6047C124.25 92.6047 118.265 54.1017 77.5779 65.7915C64.459 69.5598 55.1662 82.945 56.5482 100.674C57.5167 113.094 60.807 110.885 60.807 110.885Z" fill="#414244"/>
<path d="M76.2288 123.662C72.0368 124.507 67.7358 120.702 66.8906 116.505C66.0454 112.308 68.9802 109.31 73.1723 108.465L75.898 110.842L79.8323 122.935L76.2288 123.662Z" fill="#FBCFB9"/>
<path d="M108.44 97.8616C109.489 97.1192 110.715 96.6681 111.995 96.5541C112.638 96.4924 113.286 96.5284 113.918 96.6609C114.556 96.7909 115.175 97.0005 115.76 97.2847L115.778 97.2933C115.843 97.3219 115.917 97.3241 115.983 97.2992C116.049 97.2743 116.103 97.2245 116.134 97.1602C116.164 97.096 116.168 97.0225 116.144 96.9554C116.121 96.8884 116.073 96.8331 116.009 96.8014C115.389 96.4736 114.73 96.2252 114.048 96.0621C113.361 95.895 112.652 95.8321 111.947 95.8757C110.518 95.9548 109.136 96.4159 107.945 97.211C107.9 97.2411 107.862 97.2797 107.833 97.3245C107.803 97.3694 107.783 97.4196 107.773 97.4723C107.763 97.525 107.763 97.5792 107.774 97.6318C107.785 97.6843 107.806 97.7342 107.836 97.7786C107.867 97.823 107.905 97.8609 107.95 97.8903C107.995 97.9197 108.045 97.94 108.098 97.9499C108.15 97.9599 108.205 97.9593 108.257 97.9483C108.31 97.9372 108.359 97.916 108.404 97.8856L108.413 97.8792L108.44 97.8616Z" fill="#414244"/>
<path d="M97.1416 99.4235C95.7372 99.1438 94.2836 99.2465 92.9324 99.721C92.2646 99.9512 91.635 100.281 91.0648 100.698C90.4968 101.11 89.983 101.592 89.5355 102.133C89.4903 102.186 89.4676 102.256 89.4723 102.326C89.4769 102.396 89.5085 102.461 89.5604 102.509C89.6123 102.556 89.6804 102.581 89.7506 102.579C89.8208 102.577 89.8875 102.548 89.9368 102.498L89.9512 102.483C90.383 101.997 90.8742 101.566 91.4133 101.202C91.9467 100.837 92.5321 100.556 93.1496 100.367C94.3753 99.9813 95.681 99.9279 96.934 100.212L96.965 100.22C97.0701 100.245 97.1811 100.228 97.2734 100.172C97.3658 100.115 97.432 100.024 97.4575 99.9191C97.4829 99.8139 97.4656 99.7028 97.4093 99.6104C97.3529 99.5179 97.2622 99.4516 97.1571 99.4261L97.1416 99.4235Z" fill="#414244"/>
<path d="M73.1823 108.263C81.4954 105.165 84.2542 99.4192 85.1037 95.143C85.6535 92.2911 85.6021 89.3557 84.9527 86.5249L84.6955 86.5959C85.3351 89.3898 85.3846 92.2867 84.8406 95.1008C84.0018 99.3071 81.2825 104.961 73.0889 108.014L73.1823 108.263Z" fill="#414244"/>
<path d="M138.816 154.903L217.751 181.314L194.576 191.626L233.936 110.802L266.103 125.807L229.585 207.956C227.738 212.11 224.459 215.461 220.348 217.395C216.237 219.329 211.568 219.718 207.194 218.491L206.409 218.268L126.278 195.749L138.816 154.903Z" fill="#FF743D"/>
<path d="M89.1943 167.193C71.0024 166.335 70.2367 150.879 70.2367 150.879C70.2367 150.879 61.2229 151.463 55.231 152.274C45.421 153.602 38.9494 156.932 33.799 162.087C29.0082 166.883 26.0915 172.071 29.1779 205.197C31.4127 229.182 29.8401 281.939 29.8401 281.939H140.698C140.698 281.939 148.439 205.72 149.357 194.924C151.108 174.313 156.056 169.763 146.031 159.146C138.76 151.446 119.991 150.879 112.436 150.88C112.312 150.88 113.969 168.362 89.1943 167.193Z" fill="#FF743D"/>
<path d="M110.488 119.832C106.913 121.651 102.835 122.227 98.897 121.467C98.7606 121.441 98.6199 121.455 98.4911 121.507C98.3623 121.558 98.2507 121.645 98.1696 121.758C98.0884 121.87 98.0409 122.004 98.0326 122.142C98.0243 122.281 98.0555 122.419 98.1227 122.54C99.2966 124.611 102.081 128.149 106.858 126.707C109.942 125.775 111.108 122.599 111.54 120.634C111.57 120.498 111.56 120.357 111.512 120.226C111.464 120.096 111.38 119.982 111.269 119.897C111.159 119.813 111.026 119.762 110.888 119.751C110.749 119.739 110.611 119.767 110.488 119.832Z" fill="white"/>
<path d="M110.709 103.921C111.663 103.921 112.436 103.147 112.436 102.192C112.436 101.237 111.663 100.463 110.709 100.463C109.755 100.463 108.981 101.237 108.981 102.192C108.981 103.147 109.755 103.921 110.709 103.921Z" fill="#414244"/>
<path d="M94.1121 106.829C95.066 106.829 95.8394 106.055 95.8394 105.1C95.8394 104.145 95.066 103.371 94.1121 103.371C93.1581 103.371 92.3848 104.145 92.3848 105.1C92.3848 106.055 93.1581 106.829 94.1121 106.829Z" fill="#414244"/>
<path d="M429.717 94.9533C429.717 94.9533 423.105 87.5198 423.871 73.5989C424.465 62.8202 432.772 71.5372 432.772 71.5372C432.772 71.5372 433.275 63.7801 438.624 65.6271C443.973 67.4741 445.475 76.0276 445.475 76.0276" fill="#414244"/>
<path d="M466.882 72.1851C466.882 72.1851 493.591 80.5596 476.353 115.61L473.906 115.289L468.938 114.64" fill="#414244"/>
<path d="M428.887 152.154C429.009 152.138 430.367 174.688 456.54 172.723C474.658 171.364 481.119 152.122 481.534 152.122C479.58 151.706 476.291 151.102 475.423 150.638C472.57 149.104 469.04 147.507 468.12 141.961C467.59 138.765 468.489 122.412 468.213 119.178L440.4 125.391C440.789 132.222 443.509 148.056 433.975 150.859C432.389 151.322 430.679 151.749 428.887 152.154Z" fill="#FFC6A9"/>
<path opacity="0.52" d="M440.01 144.388C440.445 142.983 440.726 141.534 440.846 140.067C441.152 136.721 441.091 133.351 440.665 130.018C446.317 129.254 451.643 126.919 456.036 123.277C456.552 125.186 459.393 133.528 458.606 135.342C457.12 138.772 450.135 144.388 440.01 144.388Z" fill="#414244"/>
<path d="M443.345 136.75C454.298 137.931 468.531 133.695 471.63 119.111L474.425 105.952C477.52 91.3705 472.38 77.9175 458.662 74.9985C444.944 72.0795 432.179 81.7204 429.082 96.3042L427.845 102.13C427.455 104.138 427.202 106.169 427.088 108.211C426.747 113.606 426.25 121.813 428.737 127.928C431.084 133.701 436.347 135.996 443.345 136.75Z" fill="#FFC6A9"/>
<path d="M434.643 103.153C435.597 103.153 436.371 102.379 436.371 101.424C436.371 100.469 435.597 99.6953 434.643 99.6953C433.689 99.6953 432.916 100.469 432.916 101.424C432.916 102.379 433.689 103.153 434.643 103.153Z" fill="#414244"/>
<path d="M451.049 104.883C452.003 104.883 452.776 104.109 452.776 103.154C452.776 102.199 452.003 101.425 451.049 101.425C450.095 101.425 449.321 102.199 449.321 103.154C449.321 104.109 450.095 104.883 451.049 104.883Z" fill="#414244"/>
<path d="M469.833 123.373C474.002 124.26 478.33 120.515 479.216 116.342C480.103 112.169 477.212 109.149 473.043 108.262L470.301 110.601L466.249 122.61L469.833 123.373Z" fill="#FFC6A9"/>
<path d="M467.016 115.82C467.016 115.82 469.724 94.8497 463.711 92.3216C459.709 90.6381 448.404 94.5447 439.385 90.8843C435.439 89.2819 431.343 89.5223 430.56 91.3826C430.25 92.1192 429.893 80.5746 437.984 73.4814C444.426 67.8336 461.536 69.2901 468.715 72.9959C488.592 83.2559 473.725 109.344 473.725 109.344L471.364 116.287L467.016 115.82Z" fill="#414244"/>
<g opacity="0.52">
<path d="M439.134 117.319L439.107 117.315C437.763 117.032 435.539 116.407 435.749 115.402C435.925 114.568 440.092 106.045 440.568 105.076C440.609 104.992 440.681 104.929 440.769 104.899C440.856 104.869 440.952 104.875 441.036 104.916C441.119 104.956 441.183 105.029 441.213 105.117C441.243 105.204 441.237 105.301 441.196 105.384C439.347 109.158 436.553 114.979 436.434 115.546C436.517 115.813 437.859 116.337 439.25 116.629C439.337 116.649 439.414 116.701 439.464 116.775C439.514 116.85 439.533 116.941 439.518 117.029C439.504 117.117 439.455 117.197 439.384 117.251C439.312 117.305 439.223 117.329 439.134 117.319Z" fill="#414244"/>
</g>
<path d="M438.825 96.0135C437.505 95.3465 436.029 95.0481 434.553 95.1498C433.828 95.1955 433.113 95.3498 432.434 95.6076C431.761 95.8594 431.124 96.1954 430.536 96.6075C430.437 96.6701 430.368 96.769 430.341 96.8827C430.315 96.9965 430.335 97.1159 430.396 97.2153C430.457 97.3147 430.555 97.3861 430.668 97.4139C430.781 97.4418 430.901 97.424 431.001 97.3643L431.032 97.3467C431.571 97.0119 432.151 96.7463 432.756 96.5562C433.353 96.3653 433.975 96.266 434.602 96.2619C435.84 96.2437 437.061 96.5535 438.142 97.1598L438.182 97.1838C438.258 97.2289 438.342 97.2586 438.429 97.2711C438.516 97.2837 438.605 97.2789 438.69 97.2569C438.775 97.235 438.856 97.1964 438.926 97.1434C438.996 97.0903 439.055 97.0239 439.1 96.9479C439.144 96.8719 439.173 96.7878 439.185 96.7005C439.197 96.6131 439.192 96.5243 439.169 96.4391C439.147 96.3539 439.108 96.274 439.054 96.204C439.001 96.134 438.934 96.0752 438.858 96.0312L438.825 96.0135Z" fill="#414244"/>
<path d="M448.704 98.6876C449.903 98.3795 451.163 98.394 452.356 98.7298C452.96 98.8953 453.535 99.1512 454.063 99.4888C454.599 99.8285 455.091 100.234 455.526 100.696L455.55 100.72C455.633 100.8 455.743 100.845 455.857 100.846C455.972 100.847 456.082 100.803 456.165 100.724C456.249 100.645 456.298 100.537 456.304 100.423C456.309 100.308 456.271 100.196 456.196 100.109C455.733 99.5601 455.203 99.0715 454.618 98.655C454.027 98.2314 453.377 97.8987 452.688 97.6679C451.288 97.1894 449.785 97.0971 448.337 97.4009C448.251 97.4196 448.17 97.455 448.098 97.5051C448.026 97.5552 447.965 97.6189 447.917 97.6928C447.822 97.8419 447.789 98.023 447.827 98.1962C447.865 98.3694 447.969 98.5205 448.118 98.6162C448.267 98.712 448.448 98.7446 448.621 98.7068L448.656 98.6983L448.704 98.6876Z" fill="#414244"/>
<path d="M437.02 120.557C440.911 121.53 445.014 121.177 448.682 119.555C448.81 119.499 448.95 119.481 449.087 119.502C449.224 119.524 449.352 119.584 449.456 119.675C449.561 119.767 449.637 119.886 449.676 120.019C449.715 120.152 449.715 120.294 449.677 120.427C448.995 122.709 447.073 126.783 442.095 126.446C438.881 126.229 437.034 123.394 436.172 121.576C436.112 121.45 436.09 121.31 436.107 121.171C436.125 121.033 436.182 120.902 436.271 120.795C436.36 120.688 436.478 120.608 436.611 120.566C436.744 120.524 436.886 120.521 437.02 120.557Z" fill="white"/>
<path d="M452.461 76.4719C454.32 72.1039 453.423 67.538 450.459 66.2738C447.494 65.0096 443.583 67.5257 441.724 71.8937C439.865 76.2618 440.762 80.8276 443.727 82.0918C446.691 83.356 450.602 80.8399 452.461 76.4719Z" fill="#414244"/>
<path d="M456.946 167.193C475.138 166.335 475.903 150.879 475.903 150.879C475.903 150.879 484.917 151.463 490.91 152.274C500.719 153.602 507.191 156.932 512.341 162.087C517.132 166.883 520.048 172.071 516.962 205.197C514.727 229.182 516.3 281.939 516.3 281.939H405.443C405.443 281.939 397.701 205.722 396.784 194.924C395.032 174.313 390.084 169.763 400.109 159.146C407.38 151.446 426.149 150.879 433.705 150.88C433.827 150.88 432.173 168.362 456.946 167.193Z" fill="#FF743D"/>
<path d="M396.522 163.918L367.86 224.74L311.337 182.194L288.887 212.076L363.732 268.413C364.401 268.912 365.101 269.368 365.827 269.781C367.965 270.98 370.319 271.746 372.753 272.035C375.187 272.324 377.655 272.13 380.014 271.464C382.373 270.798 384.579 269.674 386.504 268.155C388.429 266.637 390.037 264.753 391.235 262.613L391.559 262.034L435.287 183.908L396.522 163.918Z" fill="#FF743D"/>
<path d="M408.851 202.025H142.513C141.408 202.025 140.513 202.921 140.513 204.025V292.521C140.513 293.625 141.408 294.521 142.513 294.521H408.851C409.955 294.521 410.851 293.625 410.851 292.521V204.025C410.851 202.921 409.955 202.025 408.851 202.025Z" fill="white"/>
<path d="M127.062 230.76L143.749 223.3C144.116 223.136 144.513 223.051 144.914 223.049C145.316 223.047 145.714 223.129 146.082 223.289C146.45 223.449 146.781 223.685 147.054 223.98C147.326 224.275 147.534 224.624 147.665 225.004C147.884 225.713 147.832 226.479 147.519 227.152C147.206 227.825 146.654 228.358 145.971 228.647L142.393 230.25L155.953 230.39C157.461 230.379 159.318 231.331 159.218 233.025C159.223 233.679 159.005 234.315 158.602 234.83C158.198 235.345 157.632 235.708 156.996 235.859C157 235.873 157.002 235.888 157.003 235.902C157.001 235.913 156.999 235.924 156.996 235.935L159.321 235.918C159.752 235.916 160.177 236.009 160.567 236.192C160.957 236.374 161.301 236.642 161.575 236.974C161.848 237.307 162.044 237.696 162.148 238.114C162.253 238.532 162.262 238.968 162.177 239.39C162.029 240.053 161.658 240.645 161.126 241.066C160.594 241.488 159.933 241.713 159.255 241.706L158.266 241.713C158.253 241.741 158.235 241.768 158.212 241.79C158.882 241.941 159.476 242.325 159.889 242.873C160.301 243.422 160.506 244.1 160.465 244.786C160.399 245.535 160.053 246.231 159.496 246.736C158.939 247.241 158.212 247.517 157.461 247.51L155.003 247.527C155.038 247.551 155.066 247.583 155.086 247.62C155.106 247.657 155.117 247.699 155.119 247.741C155.116 247.791 155.1 247.84 155.071 247.881C155.63 248.181 156.075 248.657 156.338 249.234C156.601 249.812 156.667 250.461 156.526 251.08C156.364 251.727 155.989 252.3 155.462 252.707C154.934 253.114 154.285 253.331 153.619 253.323L132.882 253.471C129.982 253.492 127.141 252.645 124.724 251.039C122.307 249.433 120.425 247.142 119.317 244.458C118.363 242.144 118.347 239.548 119.274 237.223C120.2 234.897 121.996 233.025 124.28 232.004L127.062 230.76Z" fill="#FBCFB9"/>
<g opacity="0.2">
<path d="M143.574 235.786C143.575 235.856 143.604 235.923 143.654 235.972C143.704 236.022 143.771 236.049 143.841 236.049L156.736 236.165C156.807 236.166 156.875 236.138 156.926 236.089C156.976 236.039 157.005 235.971 157.005 235.901C157.006 235.83 156.979 235.762 156.929 235.711C156.879 235.66 156.812 235.632 156.741 235.631L143.846 235.515C143.775 235.515 143.707 235.543 143.657 235.593C143.607 235.643 143.579 235.711 143.579 235.782L143.574 235.786Z" fill="#414244"/>
</g>
<g opacity="0.2">
<path d="M143.365 241.479C143.366 241.549 143.394 241.616 143.444 241.665C143.494 241.715 143.562 241.742 143.632 241.742L158.023 241.872C158.094 241.872 158.161 241.844 158.211 241.794C158.261 241.744 158.29 241.676 158.29 241.605C158.287 241.535 158.258 241.468 158.209 241.419C158.159 241.369 158.093 241.34 158.023 241.338L143.632 241.208C143.597 241.208 143.562 241.214 143.529 241.228C143.496 241.241 143.466 241.26 143.441 241.285C143.416 241.31 143.396 241.34 143.383 241.372C143.369 241.405 143.362 241.44 143.362 241.475L143.365 241.479Z" fill="#414244"/>
</g>
<g opacity="0.2">
<path d="M143.105 247.639C143.106 247.71 143.135 247.777 143.185 247.826C143.235 247.875 143.302 247.903 143.372 247.903L154.852 248.006C154.923 248.007 154.991 247.98 155.041 247.93C155.092 247.88 155.12 247.813 155.121 247.742C155.122 247.671 155.094 247.603 155.045 247.552C154.995 247.502 154.927 247.473 154.857 247.472L143.377 247.369C143.306 247.369 143.238 247.397 143.188 247.447C143.138 247.497 143.11 247.565 143.11 247.636L143.105 247.639Z" fill="#414244"/>
</g>
<path d="M131.838 260.502L39.3162 281.555C36.2426 281.89 33.1333 281.507 30.2322 280.437C27.3312 279.367 24.7173 277.639 22.5956 275.388C20.474 273.136 18.9024 270.424 18.004 267.463C17.1056 264.501 16.905 261.372 17.4178 258.32L28.0057 173.074C28.8863 167.835 31.8098 163.161 36.1332 160.08C40.4565 156.999 45.8255 155.763 51.0591 156.645C56.2927 157.526 60.9621 160.453 64.0402 164.78C67.1182 169.108 68.3528 174.482 67.4722 179.72L62.3736 240.736L126.655 226.175L131.838 260.502Z" fill="#FF743D"/>
<path d="M419.078 246.786L402.39 239.326C402.024 239.162 401.627 239.077 401.225 239.075C400.824 239.073 400.426 239.155 400.058 239.315C399.69 239.475 399.359 239.71 399.087 240.006C398.814 240.301 398.606 240.65 398.476 241.03C398.257 241.739 398.309 242.505 398.621 243.178C398.934 243.851 399.486 244.384 400.169 244.673L403.747 246.276L390.187 246.416C388.68 246.404 386.822 247.357 386.922 249.05C386.918 249.705 387.135 250.341 387.538 250.856C387.942 251.371 388.508 251.734 389.144 251.885C389.14 251.899 389.138 251.914 389.137 251.928C389.139 251.939 389.141 251.95 389.144 251.961L386.819 251.944C386.389 251.942 385.963 252.035 385.573 252.217C385.183 252.4 384.839 252.667 384.566 253C384.292 253.332 384.096 253.722 383.992 254.14C383.887 254.558 383.877 254.994 383.963 255.416C384.111 256.079 384.482 256.67 385.014 257.092C385.546 257.513 386.206 257.739 386.885 257.732L387.875 257.739C387.888 257.767 387.906 257.793 387.928 257.816C387.258 257.967 386.664 258.35 386.252 258.899C385.839 259.448 385.635 260.126 385.676 260.811C385.742 261.561 386.088 262.257 386.645 262.762C387.202 263.267 387.928 263.543 388.68 263.535L391.138 263.553C391.103 263.577 391.074 263.609 391.054 263.646C391.034 263.683 391.023 263.725 391.022 263.767C391.024 263.817 391.041 263.866 391.07 263.907C390.511 264.207 390.065 264.682 389.803 265.26C389.54 265.838 389.474 266.486 389.615 267.106C389.776 267.753 390.151 268.326 390.679 268.733C391.207 269.14 391.856 269.357 392.522 269.349L413.259 269.497C416.159 269.517 419 268.67 421.417 267.064C423.834 265.458 425.717 263.166 426.823 260.482C427.778 258.168 427.794 255.573 426.867 253.247C425.941 250.922 424.145 249.049 421.861 248.028L419.078 246.786Z" fill="#FFC6A9"/>
<g opacity="0.2">
<path d="M402.568 251.812C402.567 251.882 402.538 251.949 402.489 251.998C402.439 252.048 402.371 252.075 402.301 252.075L389.406 252.191C389.371 252.191 389.336 252.185 389.304 252.172C389.271 252.159 389.242 252.139 389.217 252.115C389.192 252.09 389.172 252.061 389.158 252.028C389.144 251.996 389.137 251.961 389.137 251.926C389.136 251.891 389.143 251.857 389.156 251.824C389.169 251.792 389.189 251.762 389.213 251.737C389.238 251.712 389.267 251.692 389.299 251.678C389.331 251.665 389.366 251.657 389.401 251.657L402.296 251.541C402.367 251.541 402.435 251.569 402.485 251.619C402.535 251.669 402.563 251.737 402.563 251.808L402.568 251.812Z" fill="#414244"/>
</g>
<g opacity="0.2">
<path d="M402.774 257.503C402.773 257.572 402.745 257.639 402.696 257.688C402.646 257.737 402.58 257.765 402.51 257.766L388.118 257.896C388.048 257.896 387.98 257.868 387.93 257.818C387.88 257.768 387.852 257.7 387.852 257.629C387.854 257.559 387.883 257.492 387.932 257.442C387.982 257.393 388.048 257.364 388.118 257.362L402.509 257.232C402.58 257.232 402.648 257.26 402.698 257.31C402.748 257.36 402.776 257.428 402.776 257.499L402.774 257.503Z" fill="#414244"/>
</g>
<g opacity="0.2">
<path d="M403.036 263.665C403.035 263.736 403.007 263.802 402.957 263.852C402.907 263.901 402.839 263.929 402.769 263.929L391.29 264.032C391.255 264.033 391.22 264.026 391.187 264.013C391.155 264 391.125 263.98 391.1 263.956C391.075 263.931 391.055 263.902 391.042 263.87C391.028 263.837 391.021 263.803 391.021 263.768C391.02 263.733 391.027 263.698 391.04 263.665C391.053 263.633 391.072 263.603 391.097 263.578C391.122 263.553 391.151 263.533 391.183 263.519C391.215 263.506 391.25 263.498 391.285 263.498L402.765 263.395C402.835 263.395 402.903 263.423 402.953 263.473C403.003 263.523 403.031 263.591 403.031 263.662L403.036 263.665Z" fill="#414244"/>
</g>
<path d="M419.64 276.526L506.825 281.555C509.898 281.89 513.008 281.507 515.909 280.437C518.81 279.367 521.424 277.639 523.545 275.388C525.667 273.137 527.239 270.424 528.137 267.463C529.035 264.502 529.236 261.372 528.723 258.32L518.137 173.071C517.701 170.477 516.759 167.995 515.365 165.765C513.97 163.536 512.151 161.603 510.01 160.078C507.869 158.552 505.449 157.464 502.888 156.874C500.327 156.285 497.675 156.206 495.084 156.642C492.493 157.079 490.013 158.022 487.785 159.418C485.558 160.814 483.627 162.635 482.103 164.778C480.579 166.92 479.491 169.343 478.903 171.906C478.314 174.47 478.235 177.124 478.671 179.718L483.77 244.473L420.022 242.196L419.64 276.526Z" fill="#FF743D"/>
<path d="M215.647 241.184H221.949L216.107 257.284H209.851L206.953 247.739L204.055 257.284H197.799L191.957 241.184H198.351L201.111 250.798L204.17 241.184H209.828L212.887 250.798L215.647 241.184ZM231.236 252.822H243.104V257.284H224.934V241.184H242.851V245.646H231.236V247.141H240.574V251.143H231.236V252.822ZM253.424 252.5H263.314V257.284H246.984V241.184H253.424V252.5ZM276.16 252.914C277.908 252.914 279.357 252.247 280.346 250.729L285.521 253.466C284.095 255.996 280.576 257.836 276.022 257.836C269.904 257.836 265.534 254.777 265.534 249.234C265.534 243.691 269.904 240.632 276.252 240.632C280.576 240.632 284.049 242.518 285.429 244.956L280.254 247.693C279.311 246.267 277.908 245.554 276.16 245.554C273.722 245.554 272.066 246.934 272.066 249.234C272.066 251.534 273.722 252.914 276.16 252.914ZM298.779 257.836C292.247 257.836 287.831 254.777 287.831 249.234C287.831 243.691 292.247 240.632 298.779 240.632C305.311 240.632 309.727 243.691 309.727 249.234C309.727 254.777 305.311 257.836 298.779 257.836ZM298.779 252.914C301.539 252.914 303.195 251.534 303.195 249.234C303.195 246.934 301.539 245.554 298.779 245.554C296.019 245.554 294.363 246.934 294.363 249.234C294.363 251.534 296.019 252.914 298.779 252.914ZM330.098 241.184H336.906V257.284H330.558V248.567L325.268 255.168H324.946L319.656 248.567V257.284H313.446V241.184H320.484L325.268 247.555L330.098 241.184ZM347.66 252.822H359.528V257.284H341.358V241.184H359.275V245.646H347.66V247.141H356.998V251.143H347.66V252.822Z" fill="#FF743D"/>
</svg>
