<svg width="209" height="41" viewBox="0 0 209 41" fill="none" xmlns="http://www.w3.org/2000/svg">
<g id="Union">
<mask id="path-1-inside-1_2167_27665" fill="white">
<path fill-rule="evenodd" clip-rule="evenodd" d="M5.33198 14.2142L0.525114 11.6194C-0.251605 11.2001 -0.14382 10.0535 0.697433 9.78631L6.74383 7.86589C9.01764 3.2084 13.8001 0 19.332 0H194.012C201.744 0 208.012 6.26801 208.012 14V27C208.012 34.732 201.744 41 194.012 41H19.332C11.6 41 5.33198 34.732 5.33198 27V14.2142Z"/>
</mask>
<path fill-rule="evenodd" clip-rule="evenodd" d="M5.33198 14.2142L0.525114 11.6194C-0.251605 11.2001 -0.14382 10.0535 0.697433 9.78631L6.74383 7.86589C9.01764 3.2084 13.8001 0 19.332 0H194.012C201.744 0 208.012 6.26801 208.012 14V27C208.012 34.732 201.744 41 194.012 41H19.332C11.6 41 5.33198 34.732 5.33198 27V14.2142Z" fill="#F5F5F5"/>
<path d="M5.33198 14.2142H6.33198V13.6176L5.80701 13.3343L5.33198 14.2142ZM0.525114 11.6194L0.0500847 12.4993H0.0500848L0.525114 11.6194ZM0.697433 9.78631L0.394721 8.83323H0.394721L0.697433 9.78631ZM6.74383 7.86589L7.04655 8.81897L7.45462 8.68936L7.64246 8.3046L6.74383 7.86589ZM5.80701 13.3343L1.00014 10.7394L0.0500848 12.4993L4.85695 15.0942L5.80701 13.3343ZM1.00014 10.7394H1.00015L0.394721 8.83323C-1.28778 9.36761 -1.50336 11.6607 0.0500847 12.4993L1.00014 10.7394ZM1.00015 10.7394L7.04655 8.81897L6.44112 6.9128L0.394721 8.83323L1.00015 10.7394ZM7.64246 8.3046C9.75502 3.97741 14.1967 1 19.332 1V-1C13.4035 -1 8.28026 2.4394 5.84521 7.42717L7.64246 8.3046ZM19.332 1H194.012V-1H19.332V1ZM194.012 1C201.192 1 207.012 6.8203 207.012 14H209.012C209.012 5.71573 202.296 -1 194.012 -1V1ZM207.012 14V27H209.012V14H207.012ZM207.012 27C207.012 34.1797 201.192 40 194.012 40V42C202.296 42 209.012 35.2843 209.012 27H207.012ZM194.012 40H19.332V42H194.012V40ZM19.332 40C12.1523 40 6.33198 34.1797 6.33198 27H4.33198C4.33198 35.2843 11.0477 42 19.332 42V40ZM6.33198 27V14.2142H4.33198V27H6.33198Z" fill="#E7EAF2" mask="url(#path-1-inside-1_2167_27665)"/>
</g>
</svg>
