<svg width="18" height="18" viewBox="0 0 18 18" fill="none" xmlns="http://www.w3.org/2000/svg">
<path d="M8.99933 9.96607L11.8163 12.7831C11.9432 12.91 12.1028 12.9749 12.2949 12.9778C12.4871 12.9808 12.6495 12.9159 12.7823 12.7831C12.9151 12.6503 12.9815 12.4893 12.9815 12.3001C12.9815 12.1109 12.9151 11.9499 12.7823 11.8171L9.96533 9.00006L12.7823 6.18305C12.9092 6.05614 12.9742 5.89661 12.9771 5.70446C12.9801 5.51233 12.9151 5.34986 12.7823 5.21707C12.6495 5.08426 12.4885 5.01785 12.2993 5.01785C12.1101 5.01785 11.9491 5.08426 11.8163 5.21707L8.99933 8.03405L6.18232 5.21707C6.05541 5.09014 5.89588 5.02521 5.70373 5.02228C5.51159 5.01933 5.34913 5.08426 5.21634 5.21707C5.08353 5.34986 5.01712 5.51086 5.01712 5.70006C5.01712 5.88926 5.08353 6.05026 5.21634 6.18305L8.03332 9.00006L5.21634 11.8171C5.08941 11.944 5.02448 12.1035 5.02154 12.2957C5.01859 12.4878 5.08353 12.6503 5.21634 12.7831C5.34913 12.9159 5.51013 12.9823 5.69933 12.9823C5.88853 12.9823 6.04952 12.9159 6.18232 12.7831L8.99933 9.96607ZM9.00086 17.7084C7.79642 17.7084 6.66431 17.4798 5.60452 17.0227C4.54472 16.5656 3.62284 15.9452 2.83889 15.1616C2.05493 14.378 1.43429 13.4566 0.97698 12.3972C0.519671 11.3379 0.291016 10.206 0.291016 9.0016C0.291016 7.79716 0.519571 6.66504 0.976683 5.60525C1.43379 4.54545 2.05415 3.62357 2.83775 2.83962C3.62136 2.05566 4.54283 1.43502 5.60216 0.977714C6.66148 0.520404 7.79335 0.291748 8.99779 0.291748C10.2022 0.291748 11.3343 0.520305 12.3941 0.977416C13.4539 1.43453 14.3758 2.05488 15.1598 2.83848C15.9437 3.62209 16.5644 4.54356 17.0217 5.60289C17.479 6.66221 17.7076 7.79409 17.7076 8.99853C17.7076 10.203 17.4791 11.3351 17.022 12.3949C16.5649 13.4547 15.9445 14.3765 15.1609 15.1605C14.3773 15.9445 13.4558 16.5651 12.3965 17.0224C11.3372 17.4797 10.2053 17.7084 9.00086 17.7084Z" fill="#B7BECF"/>
</svg>
