<svg width="30" height="30" viewBox="0 0 30 30" fill="none" xmlns="http://www.w3.org/2000/svg">
<g id="check_circle">
<mask id="mask0_481_5326" style="mask-type:alpha" maskUnits="userSpaceOnUse" x="0" y="0" width="30" height="30">
<rect id="Bounding box" width="30" height="30" fill="#D9D9D9"/>
</mask>
<g mask="url(#mask0_481_5326)">
<path id="check_circle_2" d="M13.25 17.25L10.5625 14.5625C10.3333 14.3333 10.0417 14.2188 9.6875 14.2188C9.33333 14.2188 9.04167 14.3333 8.8125 14.5625C8.58333 14.7917 8.46875 15.0833 8.46875 15.4375C8.46875 15.7917 8.58333 16.0833 8.8125 16.3125L12.375 19.875C12.625 20.125 12.9167 20.25 13.25 20.25C13.5833 20.25 13.875 20.125 14.125 19.875L21.1875 12.8125C21.4167 12.5833 21.5312 12.2917 21.5312 11.9375C21.5312 11.5833 21.4167 11.2917 21.1875 11.0625C20.9583 10.8333 20.6667 10.7188 20.3125 10.7188C19.9583 10.7188 19.6667 10.8333 19.4375 11.0625L13.25 17.25ZM15 27.5C13.2708 27.5 11.6458 27.1719 10.125 26.5156C8.60417 25.8594 7.28125 24.9688 6.15625 23.8438C5.03125 22.7188 4.14063 21.3958 3.48438 19.875C2.82812 18.3542 2.5 16.7292 2.5 15C2.5 13.2708 2.82812 11.6458 3.48438 10.125C4.14063 8.60417 5.03125 7.28125 6.15625 6.15625C7.28125 5.03125 8.60417 4.14063 10.125 3.48438C11.6458 2.82812 13.2708 2.5 15 2.5C16.7292 2.5 18.3542 2.82812 19.875 3.48438C21.3958 4.14063 22.7188 5.03125 23.8438 6.15625C24.9688 7.28125 25.8594 8.60417 26.5156 10.125C27.1719 11.6458 27.5 13.2708 27.5 15C27.5 16.7292 27.1719 18.3542 26.5156 19.875C25.8594 21.3958 24.9688 22.7188 23.8438 23.8438C22.7188 24.9688 21.3958 25.8594 19.875 26.5156C18.3542 27.1719 16.7292 27.5 15 27.5ZM15 25C17.7917 25 20.1562 24.0312 22.0938 22.0938C24.0312 20.1562 25 17.7917 25 15C25 12.2083 24.0312 9.84375 22.0938 7.90625C20.1562 5.96875 17.7917 5 15 5C12.2083 5 9.84375 5.96875 7.90625 7.90625C5.96875 9.84375 5 12.2083 5 15C5 17.7917 5.96875 20.1562 7.90625 22.0938C9.84375 24.0312 12.2083 25 15 25Z" fill="#CFD5E3"/>
</g>
</g>
</svg>
