<svg width="30" height="30" viewBox="0 0 30 30" fill="none" xmlns="http://www.w3.org/2000/svg">
<mask id="mask0_467_21674" style="mask-type:alpha" maskUnits="userSpaceOnUse" x="0" y="0" width="30" height="30">
<rect width="30" height="30" fill="#D9D9D9"/>
</mask>
<g mask="url(#mask0_467_21674)">
<path d="M10.125 26.5156C11.6458 27.1719 13.2708 27.5 15 27.5C16.7292 27.5 18.3542 27.1719 19.875 26.5156C21.3958 25.8594 22.7188 24.9688 23.8438 23.8438C24.9688 22.7188 25.8594 21.3958 26.5156 19.875C27.1719 18.3542 27.5 16.7292 27.5 15C27.5 13.2708 27.1719 11.6458 26.5156 10.125C25.8594 8.60417 24.9688 7.28125 23.8438 6.15625C22.7188 5.03125 21.3958 4.14062 19.875 3.48438C18.3542 2.82812 16.7292 2.5 15 2.5C13.2708 2.5 11.6458 2.82812 10.125 3.48438C8.60417 4.14062 7.28125 5.03125 6.15625 6.15625C5.03125 7.28125 4.14062 8.60417 3.48438 10.125C2.82812 11.6458 2.5 13.2708 2.5 15C2.5 16.7292 2.82812 18.3542 3.48438 19.875C4.14062 21.3958 5.03125 22.7188 6.15625 23.8438C7.28125 24.9688 8.60417 25.8594 10.125 26.5156Z" fill="#FF743D"/>
<path d="M10.5625 14.5625L13.25 17.25L19.4375 11.0625C19.6667 10.8333 19.9583 10.7188 20.3125 10.7188C20.6667 10.7188 20.9583 10.8333 21.1875 11.0625C21.4167 11.2917 21.5312 11.5833 21.5312 11.9375C21.5312 12.2917 21.4167 12.5833 21.1875 12.8125L14.125 19.875C13.875 20.125 13.5833 20.25 13.25 20.25C12.9167 20.25 12.625 20.125 12.375 19.875L8.8125 16.3125C8.58333 16.0833 8.46875 15.7917 8.46875 15.4375C8.46875 15.0833 8.58333 14.7917 8.8125 14.5625C9.04167 14.3333 9.33333 14.2188 9.6875 14.2188C10.0417 14.2188 10.3333 14.3333 10.5625 14.5625Z" fill="white"/>
</g>
</svg>
