<svg width="32" height="32" viewBox="0 0 32 32" fill="none" xmlns="http://www.w3.org/2000/svg">
<mask id="mask0_17_1325" style="mask-type:alpha" maskUnits="userSpaceOnUse" x="0" y="0" width="32" height="32">
<rect width="32" height="32" fill="#D9D9D9"/>
</mask>
<g mask="url(#mask0_17_1325)">
<path d="M7.80033 22.7998C8.93366 21.9332 10.2003 21.2498 11.6003 20.7498C13.0003 20.2498 14.467 19.9998 16.0003 19.9998C17.5337 19.9998 19.0003 20.2498 20.4003 20.7498C21.8003 21.2498 23.067 21.9332 24.2003 22.7998C24.9781 21.8887 25.5837 20.8554 26.017 19.6998C26.4503 18.5443 26.667 17.3109 26.667 15.9998C26.667 13.0443 25.6281 10.5276 23.5503 8.44984C21.4725 6.37206 18.9559 5.33317 16.0003 5.33317C13.0448 5.33317 10.5281 6.37206 8.45033 8.44984C6.37255 10.5276 5.33366 13.0443 5.33366 15.9998C5.33366 17.3109 5.55033 18.5443 5.98366 19.6998C6.41699 20.8554 7.02255 21.8887 7.80033 22.7998ZM16.0003 17.3332C14.6892 17.3332 13.5837 16.8832 12.6837 15.9832C11.7837 15.0832 11.3337 13.9776 11.3337 12.6665C11.3337 11.3554 11.7837 10.2498 12.6837 9.34984C13.5837 8.44984 14.6892 7.99984 16.0003 7.99984C17.3114 7.99984 18.417 8.44984 19.317 9.34984C20.217 10.2498 20.667 11.3554 20.667 12.6665C20.667 13.9776 20.217 15.0832 19.317 15.9832C18.417 16.8832 17.3114 17.3332 16.0003 17.3332ZM16.0003 29.3332C14.1559 29.3332 12.4225 28.9832 10.8003 28.2832C9.1781 27.5832 7.76699 26.6332 6.56699 25.4332C5.36699 24.2332 4.41699 22.8221 3.71699 21.1998C3.01699 19.5776 2.66699 17.8443 2.66699 15.9998C2.66699 14.1554 3.01699 12.4221 3.71699 10.7998C4.41699 9.17761 5.36699 7.7665 6.56699 6.5665C7.76699 5.3665 9.1781 4.4165 10.8003 3.7165C12.4225 3.0165 14.1559 2.6665 16.0003 2.6665C17.8448 2.6665 19.5781 3.0165 21.2003 3.7165C22.8225 4.4165 24.2337 5.3665 25.4337 6.5665C26.6337 7.7665 27.5837 9.17761 28.2837 10.7998C28.9837 12.4221 29.3337 14.1554 29.3337 15.9998C29.3337 17.8443 28.9837 19.5776 28.2837 21.1998C27.5837 22.8221 26.6337 24.2332 25.4337 25.4332C24.2337 26.6332 22.8225 27.5832 21.2003 28.2832C19.5781 28.9832 17.8448 29.3332 16.0003 29.3332Z" fill="#50545E"/>
</g>
</svg>
