<svg width="47" height="47" viewBox="0 0 47 47" fill="none" xmlns="http://www.w3.org/2000/svg">
<mask id="mask0_771_3913" style="mask-type:alpha" maskUnits="userSpaceOnUse" x="7" y="7" width="32" height="32">
<rect x="7" y="7" width="32" height="32" fill="#D9D9D9"/>
</mask>
<g mask="url(#mask0_771_3913)">
<path d="M14.7998 29.8C15.9332 28.9333 17.1998 28.25 18.5998 27.75C19.9998 27.25 21.4665 27 22.9998 27C24.5332 27 25.9998 27.25 27.3998 27.75C28.7998 28.25 30.0665 28.9333 31.1998 29.8C31.9776 28.8889 32.5832 27.8555 33.0165 26.7C33.4498 25.5444 33.6665 24.3111 33.6665 23C33.6665 20.0444 32.6276 17.5278 30.5498 15.45C28.4721 13.3722 25.9554 12.3333 22.9998 12.3333C20.0443 12.3333 17.5276 13.3722 15.4498 15.45C13.3721 17.5278 12.3332 20.0444 12.3332 23C12.3332 24.3111 12.5498 25.5444 12.9832 26.7C13.4165 27.8555 14.0221 28.8889 14.7998 29.8ZM22.9998 24.3333C21.6887 24.3333 20.5832 23.8833 19.6832 22.9833C18.7832 22.0833 18.3332 20.9778 18.3332 19.6667C18.3332 18.3555 18.7832 17.25 19.6832 16.35C20.5832 15.45 21.6887 15 22.9998 15C24.3109 15 25.4165 15.45 26.3165 16.35C27.2165 17.25 27.6665 18.3555 27.6665 19.6667C27.6665 20.9778 27.2165 22.0833 26.3165 22.9833C25.4165 23.8833 24.3109 24.3333 22.9998 24.3333ZM22.9998 36.3333C21.1554 36.3333 19.4221 35.9833 17.7998 35.2833C16.1776 34.5833 14.7665 33.6333 13.5665 32.4333C12.3665 31.2333 11.4165 29.8222 10.7165 28.2C10.0165 26.5778 9.6665 24.8444 9.6665 23C9.6665 21.1555 10.0165 19.4222 10.7165 17.8C11.4165 16.1778 12.3665 14.7667 13.5665 13.5667C14.7665 12.3667 16.1776 11.4167 17.7998 10.7167C19.4221 10.0167 21.1554 9.66666 22.9998 9.66666C24.8443 9.66666 26.5776 10.0167 28.1998 10.7167C29.8221 11.4167 31.2332 12.3667 32.4332 13.5667C33.6332 14.7667 34.5832 16.1778 35.2832 17.8C35.9832 19.4222 36.3332 21.1555 36.3332 23C36.3332 24.8444 35.9832 26.5778 35.2832 28.2C34.5832 29.8222 33.6332 31.2333 32.4332 32.4333C31.2332 33.6333 29.8221 34.5833 28.1998 35.2833C26.5776 35.9833 24.8443 36.3333 22.9998 36.3333ZM22.9998 33.6667C24.1776 33.6667 25.2887 33.4944 26.3332 33.15C27.3776 32.8055 28.3332 32.3111 29.1998 31.6667C28.3332 31.0222 27.3776 30.5278 26.3332 30.1833C25.2887 29.8389 24.1776 29.6667 22.9998 29.6667C21.8221 29.6667 20.7109 29.8389 19.6665 30.1833C18.6221 30.5278 17.6665 31.0222 16.7998 31.6667C17.6665 32.3111 18.6221 32.8055 19.6665 33.15C20.7109 33.4944 21.8221 33.6667 22.9998 33.6667ZM22.9998 21.6667C23.5776 21.6667 24.0554 21.4778 24.4332 21.1C24.8109 20.7222 24.9998 20.2444 24.9998 19.6667C24.9998 19.0889 24.8109 18.6111 24.4332 18.2333C24.0554 17.8555 23.5776 17.6667 22.9998 17.6667C22.4221 17.6667 21.9443 17.8555 21.5665 18.2333C21.1887 18.6111 20.9998 19.0889 20.9998 19.6667C20.9998 20.2444 21.1887 20.7222 21.5665 21.1C21.9443 21.4778 22.4221 21.6667 22.9998 21.6667Z" fill="#50545E"/>
</g>
</svg>
