<svg width="33" height="32" viewBox="0 0 33 32" fill="none" xmlns="http://www.w3.org/2000/svg">
<g id="outgoing_mail">
<mask id="mask0_2455_20807" style="mask-type:alpha" maskUnits="userSpaceOnUse" x="0" y="0" width="33" height="32">
<rect id="Bounding box" x="0.5" width="32" height="32" fill="#D9D9D9"/>
</mask>
<g mask="url(#mask0_2455_20807)">
<path id="outgoing_mail_2" d="M25.5282 22.3329H20.5C20.2166 22.3329 19.9791 22.2371 19.7875 22.0453C19.5958 21.8536 19.5 21.616 19.5 21.3325C19.5 21.0491 19.5958 20.8116 19.7875 20.6202C19.9791 20.4287 20.2166 20.333 20.5 20.333H25.5282L23.7769 18.556C23.5923 18.3714 23.5021 18.1428 23.5064 17.8701C23.5107 17.5975 23.6119 17.3613 23.8102 17.1615C23.992 16.9784 24.2233 16.8868 24.5042 16.8868C24.7851 16.8868 25.0179 16.9792 25.2025 17.1638L28.5153 20.4894C28.6264 20.6005 28.7111 20.7297 28.7692 20.8768C28.8273 21.024 28.8563 21.176 28.8563 21.333C28.8563 21.4899 28.8273 21.642 28.7692 21.7891C28.7111 21.9363 28.6264 22.0654 28.5153 22.1765L25.1897 25.5022C25.0051 25.6868 24.7764 25.7804 24.5038 25.7829C24.2312 25.7855 23.995 25.6869 23.7952 25.4871C23.6121 25.304 23.5205 25.0748 23.5205 24.7996C23.5205 24.5244 23.6128 24.2945 23.7974 24.1099L25.5282 22.3329ZM5.91023 22.3329C5.24741 22.3329 4.68 22.0969 4.208 21.6249C3.736 21.1529 3.5 20.5855 3.5 19.9227V6.74324C3.5 6.08042 3.736 5.51301 4.208 5.04101C4.68 4.56901 5.24741 4.33301 5.91023 4.33301H23.0897C23.7525 4.33301 24.3199 4.56901 24.7919 5.04101C25.2639 5.51301 25.4999 6.08042 25.4999 6.74324V12.7279C25.4999 12.9894 25.3987 13.2215 25.1961 13.424C24.9935 13.6266 24.7597 13.7279 24.4945 13.7279C24.2127 13.7279 23.9765 13.632 23.7859 13.4404C23.5953 13.2487 23.5 13.0112 23.5 12.7279V7.76368L14.3666 14.256L5.49993 7.78421V19.9227C5.49993 20.0424 5.5384 20.1407 5.61533 20.2176C5.69227 20.2945 5.79057 20.333 5.91023 20.333H15.8949C16.1782 20.333 16.4157 20.4289 16.6074 20.6206C16.799 20.8124 16.8949 21.05 16.8949 21.3334C16.8949 21.6169 16.799 21.8543 16.6074 22.0458C16.4157 22.2372 16.1782 22.3329 15.8949 22.3329H5.91023ZM6.89477 6.33294L14.3666 11.8099L22.0641 6.33294H6.89477Z" fill="current"/>
</g>
</g>
</svg>
