<svg width="31" height="31" viewBox="0 0 31 31" fill="none" xmlns="http://www.w3.org/2000/svg">
<g id="&#236;&#178;&#180;&#237;&#129;&#172;">
<mask id="mask0_1717_22265" style="mask-type:alpha" maskUnits="userSpaceOnUse" x="0" y="0" width="31" height="31">
<rect id="Bounding box" x="0.5" y="0.5" width="30" height="30" fill="#D9D9D9"/>
</mask>
<g mask="url(#mask0_1717_22265)">
<path id="check_box" d="M13.75 20.3173L22.1538 11.9134L20.8365 10.5962L13.75 17.6827L10.1875 14.1202L8.87019 15.4375L13.75 20.3173ZM7.13463 26.1249C6.50321 26.1249 5.96875 25.9062 5.53125 25.4687C5.09375 25.0312 4.875 24.4967 4.875 23.8653V7.13463C4.875 6.50321 5.09375 5.96875 5.53125 5.53125C5.96875 5.09375 6.50321 4.875 7.13463 4.875H23.8653C24.4967 4.875 25.0312 5.09375 25.4687 5.53125C25.9062 5.96875 26.1249 6.50321 26.1249 7.13463V23.8653C26.1249 24.4967 25.9062 25.0312 25.4687 25.4687C25.0312 25.9062 24.4967 26.1249 23.8653 26.1249H7.13463Z" fill="#FF743D"/>
</g>
</g>
</svg>
