<svg width="31" height="31" viewBox="0 0 31 31" fill="none" xmlns="http://www.w3.org/2000/svg">
<g id="&#236;&#178;&#180;&#237;&#129;&#172;">
<mask id="mask0_1717_22261" style="mask-type:alpha" maskUnits="userSpaceOnUse" x="0" y="0" width="31" height="31">
<rect id="Bounding box" x="0.5" y="0.5" width="30" height="30" fill="#D9D9D9"/>
</mask>
<g mask="url(#mask0_1717_22261)">
<path id="check_box_outline_blank" d="M7.13463 26.1249C6.50321 26.1249 5.96875 25.9062 5.53125 25.4687C5.09375 25.0312 4.875 24.4967 4.875 23.8653V7.13463C4.875 6.50321 5.09375 5.96875 5.53125 5.53125C5.96875 5.09375 6.50321 4.875 7.13463 4.875H23.8653C24.4967 4.875 25.0312 5.09375 25.4687 5.53125C25.9062 5.96875 26.1249 6.50321 26.1249 7.13463V23.8653C26.1249 24.4967 25.9062 25.0312 25.4687 25.4687C25.0312 25.9062 24.4967 26.1249 23.8653 26.1249H7.13463ZM7.13463 24.25H23.8653C23.9615 24.25 24.0496 24.2099 24.1298 24.1298C24.2099 24.0496 24.25 23.9615 24.25 23.8653V7.13463C24.25 7.03846 24.2099 6.9503 24.1298 6.87016C24.0496 6.79003 23.9615 6.74997 23.8653 6.74997H7.13463C7.03846 6.74997 6.9503 6.79003 6.87016 6.87016C6.79003 6.9503 6.74997 7.03846 6.74997 7.13463V23.8653C6.74997 23.9615 6.79003 24.0496 6.87016 24.1298C6.9503 24.2099 7.03846 24.25 7.13463 24.25Z" fill="#B7BECF"/>
</g>
</g>
</svg>
