<svg width="20" height="20" viewBox="0 0 20 20" fill="none" xmlns="http://www.w3.org/2000/svg">
<g id="check_circle">
<mask id="mask0_2391_33165" style="mask-type:alpha" maskUnits="userSpaceOnUse" x="0" y="0" width="20" height="20">
<rect id="Bounding box" width="20" height="20" fill="#D9D9D9"/>
</mask>
<g mask="url(#mask0_2391_33165)">
<path id="check_circle_2" d="M8.8199 11.7886L6.88398 9.85273C6.7686 9.73734 6.62358 9.67831 6.4489 9.67564C6.27422 9.67296 6.12651 9.73199 6.00579 9.85273C5.88507 9.97345 5.82471 10.1198 5.82471 10.2918C5.82471 10.4638 5.88507 10.6102 6.00579 10.7309L8.29265 13.0177C8.44328 13.1684 8.61903 13.2437 8.8199 13.2437C9.02074 13.2437 9.19649 13.1684 9.34713 13.0177L13.9833 8.38154C14.0987 8.26616 14.1578 8.12114 14.1604 7.94646C14.1631 7.77177 14.1041 7.62407 13.9833 7.50335C13.8626 7.38263 13.7163 7.32227 13.5443 7.32227C13.3723 7.32227 13.2259 7.38263 13.1052 7.50335L8.8199 11.7886ZM10.004 17.9168C8.90903 17.9168 7.87984 17.709 6.9164 17.2935C5.95294 16.8779 5.11487 16.3139 4.40219 15.6016C3.68949 14.8892 3.12528 14.0515 2.70954 13.0885C2.29381 12.1255 2.08594 11.0965 2.08594 10.0015C2.08594 8.90659 2.29372 7.8774 2.70927 6.91395C3.12483 5.9505 3.68878 5.11243 4.40115 4.39975C5.11352 3.68705 5.95122 3.12284 6.91425 2.7071C7.87726 2.29137 8.90624 2.0835 10.0012 2.0835C11.0961 2.0835 12.1253 2.29127 13.0888 2.70683C14.0522 3.12239 14.8903 3.68634 15.603 4.3987C16.3157 5.11108 16.8799 5.94878 17.2956 6.91181C17.7114 7.87482 17.9192 8.9038 17.9192 9.99875C17.9192 11.0937 17.7115 12.1229 17.2959 13.0863C16.8803 14.0498 16.3164 14.8879 15.604 15.6005C14.8916 16.3132 14.0539 16.8774 13.0909 17.2932C12.1279 17.7089 11.0989 17.9168 10.004 17.9168ZM10.0026 16.6668C11.8637 16.6668 13.4401 16.021 14.7318 14.7293C16.0234 13.4376 16.6693 11.8613 16.6693 10.0001C16.6693 8.13903 16.0234 6.56264 14.7318 5.27098C13.4401 3.97931 11.8637 3.33348 10.0026 3.33348C8.14147 3.33348 6.56508 3.97931 5.27342 5.27098C3.98175 6.56264 3.33592 8.13903 3.33592 10.0001C3.33592 11.8613 3.98175 13.4376 5.27342 14.7293C6.56508 16.021 8.14147 16.6668 10.0026 16.6668Z" fill="#0FC02C"/>
</g>
</g>
</svg>
