<svg width="16" height="14" viewBox="0 0 16 14" fill="none" xmlns="http://www.w3.org/2000/svg">
<path d="M10.0503 11.6333L9.48366 13.25C9.43921 13.3722 9.36144 13.4722 9.25033 13.55C9.13921 13.6278 9.01699 13.6666 8.88366 13.6666C8.66144 13.6666 8.48088 13.575 8.34199 13.3916C8.2031 13.2083 8.1781 13.0055 8.26699 12.7833L10.8003 6.08331C10.8559 5.96109 10.9392 5.86109 11.0503 5.78331C11.1614 5.70553 11.2837 5.66665 11.417 5.66665H11.917C12.0503 5.66665 12.1725 5.70553 12.2837 5.78331C12.3948 5.86109 12.4781 5.96109 12.5337 6.08331L15.067 12.8C15.1559 13.0111 15.1337 13.2083 15.0003 13.3916C14.867 13.575 14.6892 13.6666 14.467 13.6666C14.3225 13.6666 14.1975 13.6278 14.092 13.55C13.9864 13.4722 13.9059 13.3666 13.8503 13.2333L13.2837 11.6333H10.0503ZM6.03366 8.31665L3.13366 11.2C3.01144 11.3222 2.85866 11.3861 2.67533 11.3916C2.49199 11.3972 2.33366 11.3333 2.20033 11.2C2.0781 11.0778 2.01699 10.9222 2.01699 10.7333C2.01699 10.5444 2.0781 10.3889 2.20033 10.2666L5.10033 7.36665C4.71144 6.97776 4.35866 6.53331 4.04199 6.03331C3.72533 5.53331 3.43366 4.96665 3.16699 4.33331H4.56699C4.78921 4.76665 5.01144 5.14442 5.23366 5.46665C5.45588 5.78887 5.72255 6.11109 6.03366 6.43331C6.40033 6.06665 6.78088 5.55276 7.17533 4.89165C7.56977 4.23054 7.86699 3.59998 8.06699 2.99998H1.33366C1.14477 2.99998 0.986437 2.93609 0.858659 2.80831C0.730881 2.68054 0.666992 2.5222 0.666992 2.33331C0.666992 2.14442 0.730881 1.98609 0.858659 1.85831C0.986437 1.73054 1.14477 1.66665 1.33366 1.66665H5.33366V0.99998C5.33366 0.811091 5.39755 0.652757 5.52533 0.52498C5.6531 0.397202 5.81144 0.333313 6.00033 0.333313C6.18921 0.333313 6.34755 0.397202 6.47533 0.52498C6.6031 0.652757 6.66699 0.811091 6.66699 0.99998V1.66665H10.667C10.8559 1.66665 11.0142 1.73054 11.142 1.85831C11.2698 1.98609 11.3337 2.14442 11.3337 2.33331C11.3337 2.5222 11.2698 2.68054 11.142 2.80831C11.0142 2.93609 10.8559 2.99998 10.667 2.99998H9.40033C9.16699 3.79998 8.81699 4.6222 8.35033 5.46665C7.88366 6.31109 7.42255 6.95553 6.96699 7.39998L8.56699 9.03331L8.06699 10.4L6.03366 8.31665ZM10.467 10.4666H12.867L11.667 7.06665L10.467 10.4666Z" fill="#50545E"/>
</svg>
