<svg width="32" height="32" viewBox="0 0 32 32" fill="none" xmlns="http://www.w3.org/2000/svg">
<g id="upload_file">
<mask id="mask0_2455_11540" style="mask-type:alpha" maskUnits="userSpaceOnUse" x="0" y="0" width="32" height="32">
<rect id="Bounding box" width="32" height="32" fill="#D9D9D9"/>
</mask>
<g mask="url(#mask0_2455_11540)">
<path id="upload_file_2" d="M15 18.5995V23.5124C15 23.7962 15.0957 24.0338 15.2872 24.2252C15.4786 24.4167 15.7162 24.5124 16 24.5124C16.2837 24.5124 16.5213 24.4167 16.7128 24.2252C16.9042 24.0338 16.9999 23.7962 16.9999 23.5124V18.5995L18.7641 20.3637C18.8632 20.4628 18.9748 20.5372 19.0987 20.5868C19.2226 20.6364 19.3466 20.6577 19.4705 20.6509C19.5944 20.644 19.7171 20.6158 19.8384 20.5663C19.9598 20.5167 20.07 20.4423 20.1692 20.3432C20.3623 20.1364 20.4623 19.9022 20.4692 19.6406C20.476 19.3791 20.376 19.1449 20.1692 18.9381L16.8435 15.6125C16.7188 15.4877 16.5871 15.3996 16.4487 15.3484C16.3102 15.2971 16.1607 15.2714 16 15.2714C15.8393 15.2714 15.6897 15.2971 15.5513 15.3484C15.4128 15.3996 15.2812 15.4877 15.1564 15.6125L11.8308 18.9381C11.6325 19.1364 11.5346 19.3684 11.5372 19.6342C11.5397 19.9 11.6444 20.1364 11.8513 20.3432C12.0581 20.5364 12.2923 20.6364 12.5538 20.6432C12.8153 20.65 13.0495 20.55 13.2564 20.3432L15 18.5995ZM8.41027 28.6663C7.73676 28.6663 7.16667 28.4329 6.7 27.9663C6.23333 27.4996 6 26.9295 6 26.256V5.74328C6 5.06976 6.23333 4.49967 6.7 4.03301C7.16667 3.56634 7.73676 3.33301 8.41027 3.33301H18.0026C18.3239 3.33301 18.6329 3.39541 18.9295 3.52021C19.226 3.64499 19.4837 3.81678 19.7026 4.03558L25.2974 9.63038C25.5162 9.8492 25.688 10.1069 25.8127 10.4035C25.9375 10.7001 25.9999 11.009 25.9999 11.3304V26.256C25.9999 26.9295 25.7666 27.4996 25.2999 27.9663C24.8333 28.4329 24.2632 28.6663 23.5897 28.6663H8.41027ZM18 10.1278V5.33298H8.41027C8.30769 5.33298 8.21366 5.37571 8.12817 5.46118C8.0427 5.54666 7.99997 5.6407 7.99997 5.74328V26.256C7.99997 26.3586 8.0427 26.4526 8.12817 26.5381C8.21366 26.6236 8.30769 26.6663 8.41027 26.6663H23.5897C23.6922 26.6663 23.7863 26.6236 23.8718 26.5381C23.9572 26.4526 24 26.3586 24 26.256V11.3329H19.2051C18.8616 11.3329 18.5748 11.218 18.3449 10.988C18.115 10.7581 18 10.4714 18 10.1278Z" fill="current"/>
</g>
</g>
</svg>
